<svg width="64" height="64" viewBox="0 0 64 64" fill="none" xmlns="http://www.w3.org/2000/svg">
<path d="M38.1274 25.8208C36.2608 25.8208 34.4708 25.0816 33.1509 23.7658C31.8311 22.45 31.0896 20.6654 31.0896 18.8046V9.44965H17.0141C15.1475 9.44965 13.3575 10.1889 12.0376 11.5046C10.7178 12.8204 9.97632 14.605 9.97632 16.4658V53.8856C9.97632 55.7464 10.7178 57.531 12.0376 58.8468C13.3575 60.1625 15.1475 60.9017 17.0141 60.9017H40.4733C42.3398 60.9017 44.1299 60.1625 45.4497 58.8468C46.7696 57.531 47.511 55.7464 47.511 53.8856V25.8208H38.1274ZM35.7814 42.1919H31.0896V46.8694C31.0896 47.4896 30.8424 48.0845 30.4025 48.5231C29.9626 48.9617 29.3659 49.2081 28.7437 49.2081C28.1215 49.2081 27.5248 48.9617 27.0849 48.5231C26.6449 48.0845 26.3978 47.4896 26.3978 46.8694V42.1919H21.7059C21.0837 42.1919 20.4871 41.9455 20.0471 41.5069C19.6072 41.0683 19.36 40.4734 19.36 39.8532C19.36 39.2329 19.6072 38.638 20.0471 38.1994C20.4871 37.7608 21.0837 37.5144 21.7059 37.5144H26.3978V32.837C26.3978 32.2167 26.6449 31.6218 27.0849 31.1832C27.5248 30.7446 28.1215 30.4982 28.7437 30.4982C29.3659 30.4982 29.9626 30.7446 30.4025 31.1832C30.8424 31.6218 31.0896 32.2167 31.0896 32.837V37.5144H35.7814C36.4036 37.5144 37.0003 37.7608 37.4403 38.1994C37.8802 38.638 38.1274 39.2329 38.1274 39.8532C38.1274 40.4734 37.8802 41.0683 37.4403 41.5069C37.0003 41.9455 36.4036 42.1919 35.7814 42.1919Z" fill="url(#paint0_linear_695_30768)"/>
<path d="M43.1529 20.1337C41.1675 20.1337 39.2635 19.345 37.8596 17.9411C36.4557 16.5373 35.667 14.6332 35.667 12.6478V2.66669H20.6953C18.71 2.66669 16.8059 3.45537 15.402 4.85924C13.9982 6.26312 13.2095 8.16717 13.2095 10.1525V50.0771C13.2095 52.0625 13.9982 53.9666 15.402 55.3704C16.8059 56.7743 18.71 57.563 20.6953 57.563H45.6482C47.6336 57.563 49.5376 56.7743 50.9415 55.3704C52.3454 53.9666 53.1341 52.0625 53.1341 50.0771V20.1337H43.1529ZM40.6576 37.6007H35.667V42.5913C35.667 43.2531 35.4042 43.8878 34.9362 44.3557C34.4682 44.8237 33.8336 45.0866 33.1718 45.0866C32.51 45.0866 31.8753 44.8237 31.4073 44.3557C30.9394 43.8878 30.6765 43.2531 30.6765 42.5913V37.6007H25.6859C25.0241 37.6007 24.3894 37.3378 23.9215 36.8698C23.4535 36.4019 23.1906 35.7672 23.1906 35.1054C23.1906 34.4436 23.4535 33.8089 23.9215 33.341C24.3894 32.873 25.0241 32.6101 25.6859 32.6101H30.6765V27.6196C30.6765 26.9578 30.9394 26.3231 31.4073 25.8551C31.8753 25.3872 32.51 25.1243 33.1718 25.1243C33.8336 25.1243 34.4682 25.3872 34.9362 25.8551C35.4042 26.3231 35.667 26.9578 35.667 27.6196V32.6101H40.6576C41.3194 32.6101 41.9541 32.873 42.4221 33.341C42.89 33.8089 43.1529 34.4436 43.1529 35.1054C43.1529 35.7672 42.89 36.4019 42.4221 36.8698C41.9541 37.3378 41.3194 37.6007 40.6576 37.6007Z" fill="url(#paint1_linear_695_30768)"/>
<path d="M53.134 17.1893V20.1337H43.1529C41.1675 20.1337 39.2634 19.345 37.8595 17.9411C36.4557 16.5373 35.667 14.6332 35.667 12.6478V2.66669H38.6613C39.65 2.66754 40.6287 2.86423 41.541 3.2454C42.4532 3.62657 43.2809 4.18468 43.9763 4.88749L50.9631 11.9242C51.8481 12.8224 52.4918 13.9297 52.8346 15.1431C53.0342 15.8069 53.134 16.4956 53.134 17.1893Z" fill="url(#paint2_linear_695_30768)"/>
<mask id="path-4-outside-1_695_30768" maskUnits="userSpaceOnUse" x="11.2095" y="0.666687" width="44" height="59" fill="black">
<rect fill="white" x="11.2095" y="0.666687" width="44" height="59"/>
<path fill-rule="evenodd" clip-rule="evenodd" d="M43.1527 20.1337C43.1528 20.1337 43.1528 20.1337 43.1529 20.1337L43.1527 20.1337C43.1527 20.1337 43.1527 20.1337 43.1527 20.1337ZM53.1339 20.1337L53.1341 20.1337V50.0771C53.1341 52.0625 52.3454 53.9666 50.9415 55.3704C49.5376 56.7743 47.6336 57.563 45.6482 57.563H20.6953C18.71 57.563 16.8059 56.7743 15.402 55.3704C13.9982 53.9666 13.2095 52.0625 13.2095 50.0771V10.1525C13.2095 8.16717 13.9982 6.26312 15.402 4.85924C16.8059 3.45537 18.71 2.66669 20.6953 2.66669H35.6669H35.667H38.6612C39.6499 2.66754 40.6286 2.86423 41.5409 3.2454C42.4531 3.62657 43.2808 4.18468 43.9762 4.88749L50.963 11.9242C51.848 12.8224 52.4917 13.9297 52.8345 15.1431C53.0341 15.8069 53.1339 16.4956 53.1339 17.1893V20.1337ZM35.667 37.6007H40.6576C41.3194 37.6007 41.9541 37.3378 42.4221 36.8698C42.89 36.4019 43.1529 35.7672 43.1529 35.1054C43.1529 34.4436 42.89 33.8089 42.4221 33.341C41.9541 32.873 41.3194 32.6101 40.6576 32.6101H35.667V27.6196C35.667 26.9578 35.4042 26.3231 34.9362 25.8551C34.4682 25.3872 33.8336 25.1243 33.1718 25.1243C32.51 25.1243 31.8753 25.3872 31.4073 25.8551C30.9394 26.3231 30.6765 26.9578 30.6765 27.6196V32.6101H25.6859C25.0241 32.6101 24.3894 32.873 23.9215 33.341C23.4535 33.8089 23.1906 34.4436 23.1906 35.1054C23.1906 35.7672 23.4535 36.4019 23.9215 36.8698C24.3894 37.3378 25.0241 37.6007 25.6859 37.6007H30.6765V42.5913C30.6765 43.2531 30.9394 43.8878 31.4073 44.3557C31.8753 44.8237 32.51 45.0866 33.1718 45.0866C33.8336 45.0866 34.4682 44.8237 34.9362 44.3557C35.4042 43.8878 35.667 43.2531 35.667 42.5913V37.6007Z"/>
</mask>
<path d="M43.1529 20.1337V21.6337L43.1706 18.6338L43.1529 20.1337ZM43.1527 20.1337L43.1704 18.6338L43.1616 18.6337H43.1527V20.1337ZM53.1341 20.1337H54.6341V18.6514L53.1519 18.6338L53.1341 20.1337ZM53.1339 20.1337H51.6339V21.6159L53.116 21.6336L53.1339 20.1337ZM50.9415 55.3704L52.0022 56.4311H52.0022L50.9415 55.3704ZM15.402 55.3704L16.4627 54.3098L15.402 55.3704ZM15.402 4.85924L16.4627 5.9199H16.4627L15.402 4.85924ZM38.6612 2.66669L38.6625 1.16669H38.6612V2.66669ZM41.5409 3.2454L40.9626 4.62944L40.9626 4.62944L41.5409 3.2454ZM43.9762 4.88749L42.9099 5.94249L42.9118 5.94437L43.9762 4.88749ZM50.963 11.9242L52.0315 10.8714L52.0274 10.8673L50.963 11.9242ZM52.8345 15.1431L51.3909 15.5509L51.3944 15.563L51.398 15.5751L52.8345 15.1431ZM35.667 37.6007V36.1007H34.167V37.6007H35.667ZM42.4221 36.8698L41.3614 35.8092L41.3614 35.8092L42.4221 36.8698ZM35.667 32.6101H34.167V34.1101H35.667V32.6101ZM34.9362 25.8551L35.9969 24.7945L35.9969 24.7945L34.9362 25.8551ZM31.4073 25.8551L30.3467 24.7945L30.3467 24.7945L31.4073 25.8551ZM30.6765 32.6101V34.1101H32.1765V32.6101H30.6765ZM23.9215 33.341L24.9821 34.4016L24.9821 34.4016L23.9215 33.341ZM23.9215 36.8698L24.9821 35.8092L24.9821 35.8092L23.9215 36.8698ZM30.6765 37.6007H32.1765V36.1007H30.6765V37.6007ZM43.1529 18.6337C43.1529 18.6337 43.1529 18.6337 43.1529 18.6337C43.1529 18.6337 43.1529 18.6337 43.1529 18.6337H43.1529C43.1529 18.6337 43.1529 18.6337 43.1529 18.6337C43.1529 18.6337 43.1529 18.6337 43.1529 18.6337H43.1529C43.1529 18.6337 43.1529 18.6337 43.1529 18.6337C43.1529 18.6337 43.1529 18.6337 43.1529 18.6337H43.1529C43.1529 18.6337 43.1529 18.6337 43.1529 18.6337C43.1529 18.6337 43.1529 18.6337 43.1529 18.6337H43.1529C43.1529 18.6337 43.1529 18.6337 43.1529 18.6337C43.1529 18.6337 43.1529 18.6337 43.1529 18.6337H43.1529C43.1529 18.6337 43.1529 18.6337 43.1529 18.6337H43.1529C43.1529 18.6337 43.1529 18.6337 43.1529 18.6337C43.1529 18.6337 43.1529 18.6337 43.1529 18.6337H43.1529C43.1529 18.6337 43.1529 18.6337 43.1529 18.6337H43.1529C43.1529 18.6337 43.1529 18.6337 43.1529 18.6337C43.1529 18.6337 43.1529 18.6337 43.1529 18.6337H43.1529C43.1529 18.6337 43.1529 18.6337 43.1529 18.6337H43.1529C43.1529 18.6337 43.1529 18.6337 43.1529 18.6337C43.1529 18.6337 43.1529 18.6337 43.1529 18.6337H43.1529C43.1529 18.6337 43.1529 18.6337 43.1528 18.6337H43.1528C43.1528 18.6337 43.1528 18.6337 43.1528 18.6337C43.1528 18.6337 43.1528 18.6337 43.1528 18.6337H43.1528C43.1528 18.6337 43.1528 18.6337 43.1528 18.6337H43.1528C43.1528 18.6337 43.1528 18.6337 43.1528 18.6337C43.1528 18.6337 43.1528 18.6337 43.1528 18.6337H43.1528C43.1528 18.6337 43.1528 18.6337 43.1528 18.6337H43.1528C43.1528 18.6337 43.1528 18.6337 43.1528 18.6337C43.1528 18.6337 43.1528 18.6337 43.1528 18.6337C43.1528 18.6337 43.1528 18.6337 43.1528 18.6337C43.1528 18.6337 43.1528 18.6337 43.1528 18.6337H43.1528C43.1528 18.6337 43.1528 18.6337 43.1528 18.6337H43.1528C43.1528 18.6337 43.1528 18.6337 43.1528 18.6337C43.1528 18.6337 43.1528 18.6337 43.1528 18.6337C43.1528 18.6337 43.1528 18.6337 43.1528 18.6337C43.1528 18.6337 43.1528 18.6337 43.1528 18.6337H43.1528C43.1528 18.6337 43.1528 18.6337 43.1528 18.6337H43.1528C43.1528 18.6337 43.1528 18.6337 43.1528 18.6337C43.1528 18.6337 43.1528 18.6337 43.1528 18.6337H43.1528C43.1528 18.6337 43.1528 18.6337 43.1528 18.6337H43.1528C43.1528 18.6337 43.1528 18.6337 43.1528 18.6337C43.1528 18.6337 43.1528 18.6337 43.1528 18.6337H43.1528C43.1528 18.6337 43.1528 18.6337 43.1528 18.6337H43.1528C43.1528 18.6337 43.1528 18.6337 43.1528 18.6337C43.1528 18.6337 43.1528 18.6337 43.1528 18.6337H43.1528C43.1528 18.6337 43.1528 18.6337 43.1528 18.6337H43.1528C43.1528 18.6337 43.1528 18.6337 43.1528 18.6337C43.1528 18.6337 43.1528 18.6337 43.1528 18.6337H43.1528C43.1528 18.6337 43.1528 18.6337 43.1528 18.6337H43.1528C43.1528 18.6337 43.1528 18.6337 43.1528 18.6337C43.1528 18.6337 43.1528 18.6337 43.1528 18.6337H43.1528C43.1528 18.6337 43.1528 18.6337 43.1528 18.6337H43.1528C43.1528 18.6337 43.1528 18.6337 43.1528 18.6337C43.1528 18.6337 43.1528 18.6337 43.1528 18.6337H43.1527C43.1527 18.6337 43.1527 18.6337 43.1527 18.6337C43.1527 18.6337 43.1527 18.6337 43.1527 18.6337H43.1527C43.1527 18.6337 43.1527 18.6337 43.1527 18.6337C43.1527 18.6337 43.1527 18.6337 43.1527 18.6337H43.1527C43.1527 18.6337 43.1527 18.6337 43.1527 18.6337C43.1527 18.6337 43.1527 18.6337 43.1527 18.6337H43.1527C43.1527 18.6337 43.1527 18.6337 43.1527 18.6337C43.1527 18.6337 43.1527 18.6337 43.1527 18.6337V21.6337C43.1527 21.6337 43.1527 21.6337 43.1527 21.6337C43.1527 21.6337 43.1527 21.6337 43.1527 21.6337H43.1527C43.1527 21.6337 43.1527 21.6337 43.1527 21.6337C43.1527 21.6337 43.1527 21.6337 43.1527 21.6337H43.1527C43.1527 21.6337 43.1527 21.6337 43.1527 21.6337C43.1527 21.6337 43.1527 21.6337 43.1527 21.6337H43.1527C43.1527 21.6337 43.1527 21.6337 43.1527 21.6337C43.1527 21.6337 43.1527 21.6337 43.1527 21.6337H43.1528C43.1528 21.6337 43.1528 21.6337 43.1528 21.6337C43.1528 21.6337 43.1528 21.6337 43.1528 21.6337H43.1528C43.1528 21.6337 43.1528 21.6337 43.1528 21.6337H43.1528C43.1528 21.6337 43.1528 21.6337 43.1528 21.6337C43.1528 21.6337 43.1528 21.6337 43.1528 21.6337H43.1528C43.1528 21.6337 43.1528 21.6337 43.1528 21.6337H43.1528C43.1528 21.6337 43.1528 21.6337 43.1528 21.6337C43.1528 21.6337 43.1528 21.6337 43.1528 21.6337H43.1528C43.1528 21.6337 43.1528 21.6337 43.1528 21.6337H43.1528C43.1528 21.6337 43.1528 21.6337 43.1528 21.6337C43.1528 21.6337 43.1528 21.6337 43.1528 21.6337H43.1528C43.1528 21.6337 43.1528 21.6337 43.1528 21.6337H43.1528C43.1528 21.6337 43.1528 21.6337 43.1528 21.6337C43.1528 21.6337 43.1528 21.6337 43.1528 21.6337H43.1528C43.1528 21.6337 43.1528 21.6337 43.1528 21.6337H43.1528C43.1528 21.6337 43.1528 21.6337 43.1528 21.6337C43.1528 21.6337 43.1528 21.6337 43.1528 21.6337H43.1528C43.1528 21.6337 43.1528 21.6337 43.1528 21.6337H43.1528C43.1528 21.6337 43.1528 21.6337 43.1528 21.6337C43.1528 21.6337 43.1528 21.6337 43.1528 21.6337C43.1528 21.6337 43.1528 21.6337 43.1528 21.6337C43.1528 21.6337 43.1528 21.6337 43.1528 21.6337H43.1528C43.1528 21.6337 43.1528 21.6337 43.1528 21.6337H43.1528C43.1528 21.6337 43.1528 21.6337 43.1528 21.6337C43.1528 21.6337 43.1528 21.6337 43.1528 21.6337C43.1528 21.6337 43.1528 21.6337 43.1528 21.6337C43.1528 21.6337 43.1528 21.6337 43.1528 21.6337H43.1528C43.1528 21.6337 43.1528 21.6337 43.1528 21.6337H43.1528C43.1528 21.6337 43.1528 21.6337 43.1528 21.6337C43.1528 21.6337 43.1528 21.6337 43.1528 21.6337H43.1528C43.1528 21.6337 43.1528 21.6337 43.1528 21.6337H43.1528C43.1528 21.6337 43.1528 21.6337 43.1528 21.6337C43.1528 21.6337 43.1528 21.6337 43.1528 21.6337H43.1528C43.1529 21.6337 43.1529 21.6337 43.1529 21.6337H43.1529C43.1529 21.6337 43.1529 21.6337 43.1529 21.6337C43.1529 21.6337 43.1529 21.6337 43.1529 21.6337H43.1529C43.1529 21.6337 43.1529 21.6337 43.1529 21.6337H43.1529C43.1529 21.6337 43.1529 21.6337 43.1529 21.6337C43.1529 21.6337 43.1529 21.6337 43.1529 21.6337H43.1529C43.1529 21.6337 43.1529 21.6337 43.1529 21.6337H43.1529C43.1529 21.6337 43.1529 21.6337 43.1529 21.6337C43.1529 21.6337 43.1529 21.6337 43.1529 21.6337H43.1529C43.1529 21.6337 43.1529 21.6337 43.1529 21.6337H43.1529C43.1529 21.6337 43.1529 21.6337 43.1529 21.6337C43.1529 21.6337 43.1529 21.6337 43.1529 21.6337H43.1529C43.1529 21.6337 43.1529 21.6337 43.1529 21.6337C43.1529 21.6337 43.1529 21.6337 43.1529 21.6337H43.1529C43.1529 21.6337 43.1529 21.6337 43.1529 21.6337C43.1529 21.6337 43.1529 21.6337 43.1529 21.6337H43.1529C43.1529 21.6337 43.1529 21.6337 43.1529 21.6337C43.1529 21.6337 43.1529 21.6337 43.1529 21.6337H43.1529C43.1529 21.6337 43.1529 21.6337 43.1529 21.6337C43.1529 21.6337 43.1529 21.6337 43.1529 21.6337V18.6337ZM43.1706 18.6338L43.1704 18.6338L43.1351 21.6336L43.1353 21.6336L43.1706 18.6338ZM43.1527 18.6337C43.132 18.6337 43.1131 18.6341 43.0964 18.6348C43.0796 18.6354 43.0644 18.6362 43.051 18.6371C43.0247 18.6389 43.0027 18.6411 42.9871 18.6429C42.9715 18.6446 42.959 18.6462 42.9519 18.6472C42.9482 18.6477 42.9452 18.6481 42.9434 18.6484C42.9425 18.6485 42.9417 18.6486 42.9413 18.6487C42.9411 18.6487 42.9409 18.6487 42.9408 18.6487C42.9407 18.6488 42.9407 18.6488 42.9406 18.6488C42.9406 18.6488 42.9406 18.6488 42.9406 18.6488C42.9406 18.6488 42.9406 18.6488 42.9406 18.6488C42.9406 18.6488 42.9406 18.6488 42.9406 18.6488C42.9404 18.6488 42.9418 18.6486 42.9434 18.6484C42.9452 18.6481 42.9482 18.6477 42.9519 18.6472C42.9589 18.6462 42.9714 18.6446 42.9871 18.6429C43.0027 18.6411 43.0247 18.6389 43.051 18.6371C43.0644 18.6362 43.0796 18.6354 43.0964 18.6348C43.1131 18.6341 43.132 18.6337 43.1527 18.6337V21.6337C43.1734 21.6337 43.1923 21.6333 43.2091 21.6326C43.2258 21.632 43.241 21.6312 43.2544 21.6302C43.2808 21.6284 43.3028 21.6263 43.3184 21.6245C43.334 21.6228 43.3465 21.6211 43.3536 21.6202C43.3573 21.6197 43.3603 21.6193 43.3621 21.619C43.363 21.6189 43.3637 21.6188 43.3642 21.6187C43.3644 21.6187 43.3646 21.6187 43.3647 21.6186C43.3648 21.6186 43.3648 21.6186 43.3648 21.6186C43.3648 21.6186 43.3649 21.6186 43.3649 21.6186C43.3649 21.6186 43.3649 21.6186 43.3649 21.6186C43.3649 21.6186 43.3649 21.6186 43.3649 21.6186C43.3651 21.6186 43.3637 21.6188 43.3621 21.619C43.3603 21.6193 43.3573 21.6197 43.3536 21.6202C43.3465 21.6211 43.334 21.6228 43.3184 21.6245C43.3028 21.6263 43.2808 21.6284 43.2545 21.6302C43.2411 21.6311 43.2259 21.632 43.2091 21.6326C43.1924 21.6333 43.1735 21.6337 43.1527 21.6337V18.6337ZM53.1519 18.6338L53.1517 18.6338L53.116 21.6336L53.1162 21.6336L53.1519 18.6338ZM54.6341 50.0771V20.1337H51.6341V50.0771H54.6341ZM52.0022 56.4311C53.6873 54.7459 54.6341 52.4603 54.6341 50.0771H51.6341C51.6341 51.6647 51.0034 53.1872 49.8808 54.3098L52.0022 56.4311ZM45.6482 59.063C48.0314 59.063 50.317 58.1163 52.0022 56.4311L49.8808 54.3098C48.7583 55.4323 47.2357 56.063 45.6482 56.063V59.063ZM20.6953 59.063H45.6482V56.063H20.6953V59.063ZM14.3414 56.4311C16.0265 58.1163 18.3121 59.063 20.6953 59.063V56.063C19.1078 56.063 17.5853 55.4323 16.4627 54.3098L14.3414 56.4311ZM11.7095 50.0771C11.7095 52.4603 12.6562 54.7459 14.3414 56.4311L16.4627 54.3098C15.3401 53.1872 14.7095 51.6647 14.7095 50.0771H11.7095ZM11.7095 10.1525V50.0771H14.7095V10.1525H11.7095ZM14.3414 3.79858C12.6562 5.48376 11.7095 7.76935 11.7095 10.1525H14.7095C14.7095 8.565 15.3401 7.04247 16.4627 5.9199L14.3414 3.79858ZM20.6953 1.16669C18.3121 1.16669 16.0265 2.11341 14.3414 3.79858L16.4627 5.9199C17.5853 4.79734 19.1078 4.16669 20.6953 4.16669V1.16669ZM35.6669 1.16669H20.6953V4.16669H35.6669V1.16669ZM35.6669 4.16669H35.667V1.16669H35.6669V4.16669ZM35.667 4.16669H38.6612V1.16669H35.667V4.16669ZM38.6599 4.16669C39.4505 4.16737 40.2331 4.32464 40.9626 4.62944L42.1192 1.86136C41.0241 1.40381 39.8493 1.16771 38.6625 1.16669L38.6599 4.16669ZM40.9626 4.62944C41.692 4.93423 42.3539 5.38051 42.9099 5.94249L45.0425 3.83249C44.2078 2.98885 43.2142 2.31892 42.1192 1.86136L40.9626 4.62944ZM42.9118 5.94437L49.8986 12.9811L52.0274 10.8673L45.0406 3.83061L42.9118 5.94437ZM49.8945 12.9769C50.6021 13.6952 51.1169 14.5805 51.3909 15.5509L54.278 14.7354C53.8665 13.2788 53.0938 11.9497 52.0315 10.8715L49.8945 12.9769ZM51.398 15.5751C51.5548 16.0966 51.6339 16.6396 51.6339 17.1893H54.6339C54.6339 16.3515 54.5133 15.5171 54.2709 14.7111L51.398 15.5751ZM51.6339 17.1893V20.1337H54.6339V17.1893H51.6339ZM40.6576 36.1007H35.667V39.1007H40.6576V36.1007ZM41.3614 35.8092C41.1747 35.9958 40.9216 36.1007 40.6576 36.1007V39.1007C41.7172 39.1007 42.7335 38.6798 43.4827 37.9305L41.3614 35.8092ZM41.6529 35.1054C41.6529 35.3694 41.548 35.6225 41.3614 35.8092L43.4827 37.9305C44.232 37.1812 44.6529 36.165 44.6529 35.1054H41.6529ZM41.3614 34.4016C41.548 34.5883 41.6529 34.8414 41.6529 35.1054H44.6529C44.6529 34.0458 44.232 33.0296 43.4827 32.2803L41.3614 34.4016ZM40.6576 34.1101C40.9216 34.1101 41.1747 34.215 41.3614 34.4016L43.4827 32.2803C42.7335 31.5311 41.7172 31.1101 40.6576 31.1101V34.1101ZM35.667 34.1101H40.6576V31.1101H35.667V34.1101ZM34.167 27.6196V32.6101H37.167V27.6196H34.167ZM33.8755 26.9158C34.0622 27.1024 34.167 27.3556 34.167 27.6196H37.167C37.167 26.5599 36.7461 25.5437 35.9969 24.7945L33.8755 26.9158ZM33.1718 26.6243C33.4357 26.6243 33.6889 26.7291 33.8755 26.9158L35.9969 24.7945C35.2476 24.0452 34.2314 23.6243 33.1718 23.6243V26.6243ZM32.468 26.9158C32.6546 26.7291 32.9078 26.6243 33.1718 26.6243V23.6243C32.1121 23.6243 31.0959 24.0452 30.3467 24.7945L32.468 26.9158ZM32.1765 27.6196C32.1765 27.3556 32.2813 27.1024 32.468 26.9158L30.3467 24.7945C29.5974 25.5437 29.1765 26.5599 29.1765 27.6196H32.1765ZM32.1765 32.6101V27.6196H29.1765V32.6101H32.1765ZM25.6859 34.1101H30.6765V31.1101H25.6859V34.1101ZM24.9821 34.4016C25.1688 34.215 25.4219 34.1101 25.6859 34.1101V31.1101C24.6263 31.1101 23.6101 31.5311 22.8608 32.2803L24.9821 34.4016ZM24.6906 35.1054C24.6906 34.8414 24.7955 34.5883 24.9821 34.4016L22.8608 32.2803C22.1115 33.0296 21.6906 34.0458 21.6906 35.1054H24.6906ZM24.9821 35.8092C24.7955 35.6225 24.6906 35.3694 24.6906 35.1054H21.6906C21.6906 36.165 22.1115 37.1812 22.8608 37.9305L24.9821 35.8092ZM25.6859 36.1007C25.4219 36.1007 25.1688 35.9958 24.9821 35.8092L22.8608 37.9305C23.6101 38.6798 24.6263 39.1007 25.6859 39.1007V36.1007ZM30.6765 36.1007H25.6859V39.1007H30.6765V36.1007ZM32.1765 42.5913V37.6007H29.1765V42.5913H32.1765ZM32.468 43.295C32.2813 43.1084 32.1765 42.8552 32.1765 42.5913H29.1765C29.1765 43.6509 29.5974 44.6671 30.3467 45.4164L32.468 43.295ZM33.1718 43.5866C32.9078 43.5866 32.6546 43.4817 32.468 43.295L30.3467 45.4164C31.0959 46.1656 32.1122 46.5866 33.1718 46.5866V43.5866ZM33.8755 43.295C33.6889 43.4817 33.4357 43.5866 33.1718 43.5866V46.5866C34.2314 46.5866 35.2476 46.1656 35.9969 45.4164L33.8755 43.295ZM34.167 42.5913C34.167 42.8552 34.0622 43.1084 33.8755 43.295L35.9969 45.4164C36.7461 44.6671 37.167 43.6509 37.167 42.5913H34.167ZM34.167 37.6007V42.5913H37.167V37.6007H34.167Z" fill="white" mask="url(#path-4-outside-1_695_30768)"/>
<path d="M43.1527 35.1054C43.1527 35.7671 42.8898 36.4018 42.4219 36.8698C41.9539 37.3377 41.3192 37.6006 40.6574 37.6006H35.6669V42.5912C35.6669 43.253 35.404 43.8877 34.936 44.3556C34.4681 44.8236 33.8334 45.0865 33.1716 45.0865C32.5098 45.0865 31.8751 44.8236 31.4071 44.3556C30.9392 43.8877 30.6763 43.253 30.6763 42.5912V37.6006H25.6857C25.0239 37.6006 24.3892 37.3377 23.9213 36.8698C23.4533 36.4018 23.1904 35.7671 23.1904 35.1054C23.1904 34.4436 23.4533 33.8089 23.9213 33.3409C24.3892 32.873 25.0239 32.6101 25.6857 32.6101H30.6763V27.6195C30.6763 26.9577 30.9392 26.323 31.4071 25.8551C31.8751 25.3871 32.5098 25.1242 33.1716 25.1242C33.8334 25.1242 34.4681 25.3871 34.936 25.8551C35.404 26.323 35.6669 26.9577 35.6669 27.6195V32.6101H40.6574C41.3192 32.6101 41.9539 32.873 42.4219 33.3409C42.8898 33.8089 43.1527 34.4436 43.1527 35.1054Z" fill="url(#paint3_linear_695_30768)"/>
<defs>
<linearGradient id="paint0_linear_695_30768" x1="28.7437" y1="9.44965" x2="28.7437" y2="60.9017" gradientUnits="userSpaceOnUse">
<stop stop-color="#00C0FF"/>
<stop offset="1" stop-color="#4071FF"/>
</linearGradient>
<linearGradient id="paint1_linear_695_30768" x1="33.1718" y1="2.66669" x2="33.1718" y2="57.563" gradientUnits="userSpaceOnUse">
<stop stop-color="#00C0FF"/>
<stop offset="1" stop-color="#4071FF"/>
</linearGradient>
<linearGradient id="paint2_linear_695_30768" x1="44.4005" y1="2.66669" x2="44.4005" y2="20.1337" gradientUnits="userSpaceOnUse">
<stop stop-color="#EAF6FF"/>
<stop offset="1" stop-color="#ADDCFF"/>
</linearGradient>
<linearGradient id="paint3_linear_695_30768" x1="33.1716" y1="25.1242" x2="33.1716" y2="45.0865" gradientUnits="userSpaceOnUse">
<stop stop-color="#EAF6FF"/>
<stop offset="1" stop-color="#ADDCFF"/>
</linearGradient>
</defs>
</svg>
