<svg width="348" height="96" viewBox="0 0 348 96" fill="none" xmlns="http://www.w3.org/2000/svg">
<g clip-path="url(#clip0_695_24400)">
<path fill-rule="evenodd" clip-rule="evenodd" d="M114.751 95.2294C116.175 95.2781 117.614 95.2858 119.01 95.2525C124.136 95.1347 128.584 94.4845 129.137 93.3888C129.392 92.8948 128.584 92.2394 126.245 91.4151L125.415 91.1335C117.82 88.3663 110.241 84.3625 104.904 80.3818C99.4906 76.3371 96.3596 72.2848 97.771 69.4893L97.8271 69.3741C97.9691 69.1183 98.13 68.8736 98.3086 68.642C99.7683 66.74 102.331 65.7902 105.406 65.6341C107.583 65.5548 109.76 65.7762 111.877 66.292L111.961 65.8312C112.058 65.3013 112.98 65.0939 113.999 65.373L116.875 66.1563L117.385 66.292L118.045 66.4712L122.483 67.6795C123.198 67.874 123.728 68.3374 123.662 68.7034C123.593 69.0746 122.954 69.2154 122.235 69.0234L117.798 67.8177L117.609 68.8417L122.047 70.0474C122.765 70.2419 123.295 70.7053 123.229 71.0714C123.16 71.44 122.518 71.5833 121.802 71.3888L117.364 70.1831L113.327 69.0849C112.308 68.8058 111.543 68.1428 111.638 67.6129L111.77 66.8936C109.866 66.4381 107.91 66.2435 105.954 66.315C103.152 66.4584 100.792 67.339 99.4422 69.09C99.2753 69.3072 99.1246 69.5365 98.9913 69.776C98.9735 69.8119 98.9531 69.8452 98.9378 69.881C97.6436 72.4409 100.627 76.2552 105.75 80.0849C110.952 83.9709 118.333 87.8696 125.728 90.5627L126.536 90.852C129.7 91.9681 130.732 92.9639 130.309 93.8036C129.662 95.0835 124.931 95.8285 119.51 95.9539C117.958 95.9923 116.348 95.9769 114.756 95.9129V95.2294H114.751ZM200.016 77.8987L196.36 75.5256C195.285 74.8268 195.101 73.9359 195.957 73.5468L197.17 72.9939L197.917 72.6534C199.718 71.8317 202.123 72.2489 203.959 73.1526C206.056 72.0211 209.139 71.4758 212.7 71.6832C216.659 71.9515 220.535 72.9512 224.134 74.6322C224.796 74.9354 225.437 75.2817 226.055 75.669C228.893 77.4609 230.189 79.7163 230.23 82.0381C230.271 84.3062 229.112 86.646 227.028 88.717C225.474 90.214 223.683 91.4416 221.729 92.3495C220.549 92.9153 220.361 93.3428 220.852 93.6551C222.381 94.6253 228.126 95.191 233.845 95.2653H234.895V95.9616H234.281C228.22 95.8771 222.004 95.1936 220.119 94.0032C219.039 93.3172 219.079 92.5543 220.773 91.7428C222.675 90.8585 224.417 89.6639 225.93 88.2075C227.945 86.2134 229.068 83.9504 229.028 81.7744C228.989 79.6497 227.84 77.6145 225.321 76.0172C224.783 75.6784 224.223 75.3757 223.645 75.1109C220.311 73.5532 216.72 72.6256 213.052 72.3744C209.76 72.1849 206.907 72.6867 204.963 73.7286C206.746 74.942 207.511 76.5983 205.488 77.5685L203.807 78.3339L203.534 78.4593C202.675 78.8587 201.093 78.6078 200.016 77.9089V77.8987Z" fill="#E1E6EF"/>
<path fill-rule="evenodd" clip-rule="evenodd" d="M133.009 71.0151C132.298 70.7437 131.6 70.4741 130.918 70.2062C130.772 70.2266 130.839 70.3879 131.193 70.7386C132.698 72.2311 125.958 69.0209 122.916 67.0805C122.261 66.6632 121.624 66.2715 121.028 65.9259C120.252 65.5471 119.509 65.1716 118.799 64.7996C117.9 64.454 117.415 64.5077 117.663 65.2143C118.172 66.7067 113.077 62.1424 111.276 60.2864C110.642 59.5793 110.111 58.7866 109.696 57.9313C109.526 57.6753 109.373 57.4423 109.24 57.2043C108.932 56.8331 108.608 56.7793 108.099 57.3015C106.792 58.6455 106.456 54.0914 107.623 53.5692C108.155 53.295 108.618 52.9029 108.978 52.4223C109.073 52.2205 109.18 52.0239 109.296 51.8335C109.406 51.4291 109.143 51.1961 108.178 51.4803C105.885 52.151 110.394 49.5398 110.155 48.9408C110.133 48.8933 110.097 48.8533 110.053 48.8256C109.829 48.7521 109.597 48.704 109.363 48.6822C108.262 48.6669 106.247 49.1686 104.716 50.1363C102.586 51.4803 102.168 51.4163 101.913 50.6483C101.659 49.8803 100.744 50.4998 100.464 52.814C100.184 55.1282 97.2564 54.0939 97.287 53.0367C97.3176 51.9794 96.3546 52.814 96.3113 55.0514C96.268 57.2887 94.877 56.6948 94.0872 55.6478C93.2975 54.6008 93.3612 56.3953 95.4171 58.3357C97.473 60.2762 98.7009 60.8752 96.2323 60.2019C93.7637 59.5287 98.0462 61.5459 102.823 62.8899C104.443 63.3455 104.836 63.6041 104.512 63.7449C106.652 64.4975 108.405 65.373 108.965 65.7519C110.512 66.7938 108.667 66.9166 107.164 66.0079C104.316 64.2953 102.578 65.5164 105.309 66.1845C108.42 66.9525 109.151 68.3246 105.61 67.4901C104.13 67.0165 102.838 67.4491 104.469 67.8101C106.214 68.194 105.488 69.3307 102.706 68.4424C100.303 67.6744 101.348 68.3246 101.964 68.5704C103.908 69.3383 102.306 69.7607 99.2741 68.3579C97.7277 67.6437 96.2705 66.8885 94.8923 66.1128C94.8965 66.3809 94.9169 66.6485 94.9534 66.9141C95.1445 68.4065 90.3015 64.6101 89.1424 63.2559C87.9832 61.9017 86.0343 59.5236 84.707 60.7165C83.3797 61.9094 81.706 56.5361 82.4677 55.4174C82.6308 55.1768 82.8753 54.8926 83.1275 54.5931C83.2884 53.9065 83.6117 53.2689 84.0701 52.7346C83.9173 52.4991 83.4766 52.3762 82.5722 52.4402C79.3953 52.6629 85.3923 50.0518 88.6864 49.3683C89.1093 49.2813 89.5551 49.1866 89.9984 49.0842C91.0938 48.6694 92.2988 48.2829 93.6134 47.9245C93.7357 47.7197 93.0427 47.6173 90.9435 47.7274C85.2268 48.0243 95.0986 46.1582 98.7162 46.1582C102.334 46.1582 109.819 45.5617 105.139 44.9652C102.102 44.5761 108.873 44.5659 115.839 44.6683C116.292 44.3713 119.028 44.0411 122.325 44.2971C124.093 44.4353 125.331 44.6606 125.955 44.8859C127.524 44.8577 129.071 44.8859 130.579 44.9191C132.817 44.7693 135.064 44.8741 137.279 45.2315C140.28 45.403 142.988 45.5566 145.248 45.4875C150.162 45.339 155.227 46.3834 150.17 46.6804L149.64 46.7188C150.687 46.8442 151.737 46.9748 152.781 47.1181C155.711 47.2308 159.593 47.3178 161.682 47.3536C166.049 47.4279 166.729 48.2496 165.216 48.6336C163.703 49.0176 170.624 49.1456 174.884 49.6781C179.143 50.2105 177.485 50.7225 175.256 50.6483C173.027 50.574 180.471 52.215 185.808 52.814C191.145 53.413 189.413 54.0069 188.101 54.0069C186.789 54.0069 190.445 54.9771 195.326 55.8731C200.207 56.7691 199.226 57.4398 197.379 57.1531C195.532 56.8663 199.468 58.049 204.828 59.457C210.188 60.865 208.65 61.6201 206.591 61.0237C204.533 60.4272 207.396 61.5357 212.229 63.3276C217.062 65.1196 215.989 65.716 213.317 64.7458C210.644 63.7756 214.509 65.716 218.025 67.508C220.873 68.9569 220.626 69.3793 218.226 68.619C219.166 69.3985 220.04 70.2547 220.84 71.1789C221.979 72.5075 220.44 72.8608 219.459 71.8419C219.072 71.44 218.353 71.2276 218.97 71.8829C219.586 72.5382 219.237 72.633 218.606 72.6714C217.699 72.7277 216.692 72.4461 215.505 71.8266C213.273 70.6618 215.979 73.1065 212.479 72.1466C210.889 71.7114 210.792 70.9664 210.474 70.4749C210.102 69.9041 208.145 68.7009 207.228 69.7786C206.876 70.1933 209.266 71.161 207.738 71.266C205.017 71.4554 204.072 69.474 204.51 68.3886C204.703 67.9124 204.877 67.5797 204.978 67.2929C203.689 67.4363 202.867 66.8219 203.381 66.1589C204.016 65.3372 202.925 63.2483 201.87 63.9932C200.816 64.7381 199.985 63.3967 198.734 61.9785C197.484 60.5603 191.425 58.1719 192.691 59.0679C193.958 59.9639 191.137 59.1421 188.664 57.7879C186.19 56.4337 181.872 54.803 183.082 55.9217C184.292 57.0404 178.751 54.2808 175.651 53.0853C172.55 51.8898 168.897 51.0707 170.841 52.1151C172.785 53.1596 165.919 50.9196 163.175 50.0262C160.431 49.1328 157.061 48.5312 155.532 48.7462C154.004 48.9613 157.754 50.6867 163.389 52.3301C169.024 53.9736 169.394 54.2706 166.541 53.8226C163.687 53.3746 167.305 54.7186 171.358 56.1265C175.411 57.5345 181.938 59.7847 177.582 58.5149C173.225 57.2452 175.74 58.8887 180.894 60.6781C186.047 62.4675 183.225 62.8438 181.403 62.1731C181.252 62.1076 181.092 62.062 180.929 62.0374C181.464 62.4368 181.966 62.8387 182.425 63.238C183.406 63.8703 184.756 64.6895 186.19 65.542C189.757 67.6309 187.907 68.6753 186.254 67.3339C184.6 65.9925 186.075 67.8459 188.098 70.1703C190.121 72.4947 188.353 72.7814 187.229 71.737C186.644 71.1892 186.17 70.9921 185.999 71.2557C185.979 71.3248 185.958 71.3914 185.935 71.458C185.902 71.7805 186.042 72.3565 186.445 73.2294C187.479 75.5334 185.54 75.1699 185.026 74.3481C184.511 73.5264 184.386 74.4992 184.101 75.4694C183.816 76.4396 183.179 77.2613 182.188 76.5881C181.197 75.9148 182.468 77.484 185.523 78.2315C186.919 78.572 187.028 78.7896 186.475 78.8664C188.722 79.2811 191.12 79.7086 192.62 80.3742C195.188 79.66 195.504 79.5422 195.588 80.7659C197.473 81.2395 199.088 82.7524 196.961 82.6833C197.427 83.8634 196.844 84.6211 194.414 84.2755C190.205 83.6739 186.934 83.162 183.691 83.2516C181.125 83.3258 176.609 80.5739 176.26 79.0891C176.227 78.9291 176.218 78.7654 176.232 78.6027L175.709 78.677C173.045 79.0507 172.927 77.4815 174.861 77.1845C175.88 77.0258 176.568 76.4165 176.688 75.9558V75.925C176.67 75.8124 176.649 75.7023 176.629 75.5922C176.479 75.4156 176.119 75.3567 175.472 75.541C173.411 76.1375 176.061 73.0784 175.134 73.5264C174.206 73.9744 165.746 74.0384 161.631 74.0384C157.517 74.0384 147.874 73.1424 151.089 73.8899C154.304 74.6374 152.427 74.7091 149.721 74.1126C147.016 73.5161 149.943 74.5606 154.113 75.6793C158.284 76.798 157.153 76.9593 154.282 76.3525C154.027 76.2988 153.828 76.2604 153.678 76.2322C154.386 76.4882 155.112 76.7442 155.83 77.0002C157.148 77.3868 158.888 77.8885 160.796 78.444C163.229 79.1531 163.048 79.404 161.815 79.468C163.947 80.8324 163.626 82.2225 160.144 82.1841C157.94 82.161 155.943 82.9111 156.182 83.6586C156.824 85.6553 150.577 84.9565 149.688 83.7456C147.487 84.1399 146.139 83.7456 145.683 82.8189C141.88 83.121 139.343 79.7777 146.078 80.3512C146.333 79.8955 147.75 79.0046 145.762 79.1941C143.775 79.3835 146.272 77.9986 149.556 77.9986C152.84 77.9986 149.242 77.4866 148.325 76.7314C147.408 75.9762 142.135 73.9692 143.551 75.3874C144.968 76.8056 139.544 74.2662 136.466 72.6995C135.297 72.1568 134.038 71.5092 133.009 71.0151Z" fill="#E1E6EF"/>
<path d="M69.6535 94.0852C72.7725 94.2641 75.9017 94.0923 78.9827 93.5732C81.6959 93.0868 83.8435 92.3239 84.7046 91.3435C85.2396 90.7342 85.1352 89.9662 84.1034 89.0524C82.4729 87.606 82.4093 86.303 83.3799 85.1971C84.8116 83.5664 88.9311 82.5655 93.2569 82.3812C97.5827 82.1969 102.1 82.7856 104.451 84.337C106.265 85.535 106.886 87.2374 105.406 89.5003C104.538 90.8315 104.953 91.8888 106.171 92.6875C108.695 94.354 114.231 95.0349 119.489 94.8429C124.694 94.6509 129.565 93.6218 130.836 91.8657C131.409 91.0721 131.038 90.0277 129.239 88.7119C129.025 88.5557 128.813 88.397 128.602 88.2357C122.816 83.8147 117.856 77.4226 115.128 71.0509C112.361 64.5896 111.88 58.1207 115.115 53.6434C115.158 53.5819 115.204 53.5231 115.25 53.4616C115.563 53.0469 115.882 52.6569 116.208 52.2917C118.914 49.2557 122.098 47.7402 125.275 47.4893C128.452 47.2333 131.613 48.2573 134.273 50.2899C134.599 50.5459 134.912 50.8019 135.218 51.0758L134.477 51.9077C134.191 51.65 133.899 51.4077 133.6 51.1807C131.16 49.3145 128.263 48.3776 125.359 48.6054C122.452 48.8333 119.53 50.2335 117.033 53.0367C116.724 53.378 116.424 53.7441 116.132 54.1349L116.009 54.2987C113.034 58.3946 113.531 64.4796 116.149 70.5978C118.807 76.8082 123.639 83.0314 129.27 87.3372C129.473 87.4942 129.68 87.6478 129.889 87.798C132.324 89.5899 132.704 91.1694 131.733 92.5108C130.245 94.5588 125.03 95.7466 119.525 95.9488C114.076 96.1485 108.283 95.4061 105.559 93.609C103.776 92.4391 103.185 90.8699 104.487 88.8757C105.531 87.2809 105.106 86.0905 103.847 85.2585C101.7 83.8429 97.4069 83.3053 93.3129 83.4871C89.2189 83.6688 85.4485 84.5341 84.2206 85.9318C83.7111 86.5257 83.8053 87.286 84.8473 88.2101C86.465 89.6437 86.5338 90.9518 85.5428 92.0782C84.5059 93.2609 82.129 94.1441 79.1738 94.6714C76.0095 95.205 72.7958 95.3819 69.5924 95.1987C64.9175 94.9428 60.9306 94.5613 56.1946 94.4845C53.2827 94.4845 2.86858 94.7994 0 94.6458V93.4068C2.71318 93.4913 52.2739 93.3223 56.7933 93.3223C61.542 93.3991 64.9889 93.8215 69.6535 94.0903V94.0852ZM285.207 95.9821C281.641 96.0102 277.511 95.4061 274.286 94.9581C270.951 94.4896 268.329 93.6474 267.522 92.4903C266.885 91.579 267.129 90.5909 268.582 89.5643C269.41 88.9807 269.618 88.5404 269.387 88.1999C268.505 86.9379 264.261 86.152 259.775 86.0316C255.248 85.9062 250.547 86.4668 248.82 87.8901C248.165 88.4328 248.074 89.1701 248.848 90.1096C249.966 91.4689 249.758 92.6132 248.634 93.545C246.474 95.337 240.227 96.105 234.278 95.977C228.271 95.8439 222.498 94.761 221.395 92.8487C220.763 91.7531 221.304 90.5448 223.53 89.2367C226.231 87.6556 228.737 85.7611 230.997 83.592C234.309 80.4049 236.92 76.7928 238.304 73.3165C239.654 69.9245 239.832 66.6734 238.362 64.1212C238.06 63.5974 237.696 63.1118 237.279 62.6748C234.971 60.1909 231.841 58.6366 228.475 58.3025C225.058 57.988 221.643 58.9123 218.845 60.9085L218.201 59.9971C221.214 57.841 224.896 56.8419 228.579 57.1812C232.213 57.5375 235.592 59.2131 238.084 61.894C238.563 62.3941 238.979 62.9502 239.325 63.5503C240.986 66.4277 240.813 70.0167 239.325 73.7235C237.883 77.3458 235.185 81.0961 231.754 84.3933C229.43 86.6228 226.854 88.5698 224.078 90.1941C222.531 91.0952 222.06 91.7812 222.348 92.2779C223.242 93.8317 228.62 94.7252 234.289 94.8378C240.016 94.9658 245.969 94.2772 247.916 92.6619C248.507 92.1729 248.601 91.556 247.979 90.7982C246.706 89.2443 246.92 87.9823 248.104 87.007C250.04 85.4019 255.036 84.7619 259.785 84.895C264.574 85.0307 269.188 85.9753 270.278 87.5369C270.908 88.4354 270.668 89.4261 269.201 90.4603C268.385 91.0363 268.182 91.4843 268.413 91.8273C269.03 92.7105 271.371 93.4017 274.418 93.8317C277.572 94.2746 281.6 94.7968 285.118 94.93C288.985 94.93 294.738 94.8378 298.111 94.8352C300.587 94.7789 346.77 94.8148 347.972 94.6484V95.6135C346.443 95.7312 299.988 95.8694 298.172 95.8694C294.455 95.9488 289.485 96.041 285.207 95.9821Z" fill="url(#paint0_linear_695_24400)"/>
<path fill-rule="evenodd" clip-rule="evenodd" d="M152.529 66.1589C145.013 56.3057 140.092 46.9594 139.256 38.3785C138.28 28.3538 142.866 20.0827 149.105 13.5318C161.374 0.645143 123.96 17.0569 122.63 32.4216C122.376 35.4423 124.312 38.8521 126.686 41.325C128.421 43.1323 129.387 45.746 129.504 46.7623C129.759 49.0663 127.771 49.3427 127.379 47.3409C126.635 43.5522 123.395 46.258 125.305 47.7351C127.484 49.417 126.515 52.4735 124.001 50.6278C123.102 49.5782 121.278 50.5357 122.472 51.3318C123.746 52.1842 121.619 54.6981 119.925 52.7295C118.468 51.0297 118.71 52.4735 119.026 53.0137C120.022 54.7211 117.902 55.6504 116.595 52.5452C114.557 47.7069 113.793 42.0495 113.423 36.7914C111.752 13.368 145.212 -1.73815 175.381 1.02401C199.886 3.25627 222.404 15.782 230.612 33.3534C235.896 44.6657 235.626 53.1647 234.673 58.8042C234.176 61.7456 232.205 62.5289 232.477 60.2736C232.582 59.3828 232.126 58.9143 231.937 60.3632C231.741 61.8634 231.28 62.0272 230.602 62.1117C229.626 62.2345 228.967 61.6125 228.541 60.2404C227.741 57.6599 227.446 63.0563 225.12 60.9469C224.065 59.9869 224.888 58.3358 225.171 57.2478C225.499 55.9857 225.025 53.3209 222.778 55.7118C221.917 56.6283 223.125 58.7684 221.466 59.0013C218.514 59.4212 220.012 55.0207 221.777 52.6322C224.325 49.1712 224.768 49.1558 225.481 44.8654C228.926 24.1172 182.114 -8.19174 199.685 19.3275C203.873 25.8861 208.018 37.5901 204.973 47.6532C201.634 58.6967 196.974 63.0128 189.064 70.4366C187.831 71.6141 188.299 74.4301 189.711 75.2416C191.68 76.3807 194.296 77.397 195.132 79.1967C198.576 77.6197 200.961 79.509 199.542 82.2148C200.844 83.2644 200.604 86.6102 198.559 86.4592C197.573 89.0729 194.136 88.5993 192.134 87.8313C188.664 86.5001 187.548 82.8906 184.2 83.0954C181.546 83.2593 178.876 79.6472 180.354 76.3577C181.118 74.6425 183.823 70.9332 184.669 69.3588C190.019 58.2436 190.057 53.8354 173.399 53.582C156.74 53.3285 155.583 59.1319 159.756 67.6616C161.183 70.3342 163.914 73.3063 165.007 75.7433C166.535 79.1352 164.436 83.3284 160.421 83.2311C158.246 83.1774 155.326 84.8387 154.648 86.4899C152.835 90.9109 147.436 89.3647 148.045 86.6845C145.36 87.5548 143.908 86.111 144.608 84.0298C140.229 84.7338 142.201 76.4908 149.051 78.8459C148.893 77.333 153.619 73.8182 156.276 73.9437C159.308 74.0819 153.558 67.508 152.529 66.1589Z" fill="#4831D4"/>
<path fill-rule="evenodd" clip-rule="evenodd" d="M221.451 59.0013C220.32 59.1574 219.849 58.5968 219.795 57.7213H219.956C220.314 57.728 220.659 57.8592 220.931 58.0926C221.204 58.326 221.388 58.6471 221.451 59.0013Z" fill="#E1E6EF"/>
<path fill-rule="evenodd" clip-rule="evenodd" d="M129.527 47.1027C129.55 48.0678 129.135 48.6028 128.658 48.6822C128.608 48.5444 128.582 48.3989 128.582 48.2521C128.575 47.9783 128.667 47.7111 128.841 47.4999C129.014 47.2887 129.258 47.1477 129.527 47.1027Z" fill="#E1E6EF"/>
<path fill-rule="evenodd" clip-rule="evenodd" d="M171.926 0.611809C165.514 0.115183 147.266 -0.54528 151.212 0.767965C155.158 2.08121 146.937 3.41237 143.314 3.41237C139.692 3.41237 127.519 7.54154 133.613 6.88108C139.707 6.22062 133.45 9.02886 129.338 10.5162C125.226 12.0035 116.027 17.7915 119.482 17.2974C122.936 16.8034 117.838 21.4266 115.701 23.9046C113.564 26.3826 108.631 38.2786 111.426 35.6342C114.221 32.9898 113.235 38.2786 112.741 41.2661C112.247 44.2535 112.412 52.6655 114.058 49.3606C115.704 46.0557 117.673 42.587 121.127 42.587C124.582 42.587 130.006 43.4139 126.88 40.4392C123.754 37.4646 121.948 33.0154 123.593 34.4925C125.239 35.9696 124.742 34.6563 125.074 30.3608C125.405 26.0652 127.54 22.0999 127.045 24.4141C126.551 26.7282 127.211 28.0492 130.006 23.0931C132.8 18.1371 134.767 16.3068 133.455 18.6184C132.143 20.93 133.784 23.2442 136.907 18.1243C140.03 13.0044 141.676 11.681 141.019 13.3321C140.362 14.9833 140.69 15.1497 144.471 12.175C148.252 9.20038 151.859 8.20969 151.375 9.53317C150.891 10.8567 143.156 16.637 146.28 15.1497C149.403 13.6623 144.957 18.6184 143.156 19.7755C141.355 20.9325 136.087 31.0084 139.045 28.0364C142.002 25.0643 139.045 30.5144 138.553 34.6435C138.061 38.7727 137.564 48.8512 138.882 45.5488C140.199 42.2465 141.174 45.3825 141.839 49.678C142.504 53.9736 145.294 61.0774 145.622 57.7725C145.951 54.4676 147.266 58.7658 148.425 62.2345C149.584 65.7032 151.877 71.3197 152.205 68.1812C152.534 65.0427 155.329 69.5047 155.329 71.1558C155.329 72.807 158.289 73.9718 155 73.9718C151.711 73.9718 147.103 77.1102 149.739 76.6162C152.376 76.1221 145.464 79.0942 148.753 79.5883C152.042 80.0823 155.986 76.9464 159.275 76.9464C162.564 76.9464 169.139 78.4312 165.687 74.9625C162.235 71.4938 159.604 69.0157 161.741 70.3367C163.878 71.6576 165.193 71.3274 162.398 68.8493C159.604 66.3713 157.96 64.0597 159.932 65.3806C161.904 66.7016 163.878 66.5377 161.578 64.884C159.277 63.2303 167.825 65.2168 171.934 65.2168C176.043 65.2168 184.595 65.0504 186.076 64.0597C187.556 63.069 181.133 69.8349 183.936 68.5114C186.738 67.188 183.607 71.4861 181.304 72.1465C179.001 72.807 177.195 76.2757 180.318 75.4514C183.441 74.6271 185.579 73.7977 187.551 75.1212C189.522 76.4447 192.814 76.1119 190.676 74.4607C188.539 72.8096 189.196 69.3409 189.359 70.8256C189.522 72.3104 191.168 70.4954 192.648 68.3476C194.128 66.1998 195.451 64.052 194.941 65.8696C194.432 67.6871 195.927 68.5114 197.743 63.3916C199.56 58.2717 200.546 57.7725 200.373 60.0867C200.199 62.4009 202.347 61.7379 203.175 56.618C204.003 51.4981 204.821 47.3664 204.821 50.3385C204.821 53.3106 207.944 50.9989 206.958 46.3731C205.972 41.7473 205.312 37.4518 206.301 38.9493C207.289 40.4469 210.576 39.6098 207.615 35.6445C204.655 31.6791 204.163 28.0466 206.958 30.8548C209.753 33.6631 205.972 28.7071 203.669 25.5686C201.366 22.4301 199.394 19.4555 201.697 20.4487C204 21.442 203.99 20.7789 200.38 17.1438C196.77 13.5087 195.119 9.72005 196.928 9.20806C198.737 8.69607 201.369 10.0324 203.012 12.024C204.655 14.0156 208.757 18.9435 208.099 16.6395C207.442 14.3356 210.071 16.1429 211.714 18.7873C213.358 21.4317 215.498 27.5423 215.661 25.0643C215.824 22.5863 218.127 26.2214 218.95 29.196C219.772 32.1706 221.579 33.9856 221.416 32.0119C221.253 30.0382 224.376 35.3142 223.882 38.4553C223.387 41.5963 222.567 44.5684 224.539 42.9147C226.511 41.261 225.033 45.8893 223.39 47.7069C221.747 49.5244 222.238 51.1756 224.868 49.6883C227.497 48.2009 231.937 47.8707 234.075 51.5058C236.212 55.1409 237.692 54.6443 236.367 50.679C235.043 46.7136 233.565 42.4206 235.053 44.5684C236.541 46.7162 238.339 45.3927 235.71 41.4274C233.081 37.462 231.598 34.984 232.908 36.3075C234.217 37.631 236.688 35.9747 233.071 32.8362C229.453 29.6978 226.987 27.0559 228.467 27.7164C229.947 28.3768 231.756 26.8895 227.976 24.9004C224.195 22.9114 221.726 20.7687 223.041 20.7687C224.356 20.7687 226.842 19.4555 222.238 18.1243C217.635 16.7931 212.209 13.1657 214.341 13.3321C216.473 13.4985 218.781 12.3414 215.164 11.1843C211.546 10.0272 204.805 9.69701 206.777 8.88039C208.749 8.06377 209.07 6.23854 204.805 6.06446C200.541 5.89039 188.692 5.24017 194.105 4.5797C199.519 3.91924 195.749 1.60506 190.654 1.93529C185.558 2.26553 179.656 0.281578 171.926 0.611809Z" fill="#4831D4"/>
<path fill-rule="evenodd" clip-rule="evenodd" d="M182.107 4.86382C184.412 5.18647 186.571 6.18892 188.31 7.74439C190.048 9.29986 191.289 11.3385 191.875 13.6025C192.46 15.8664 192.365 18.2541 191.6 20.4634C190.835 22.6728 189.435 24.6046 187.578 26.0146C185.72 27.4246 183.488 28.2494 181.164 28.3847C178.84 28.5201 176.528 27.9599 174.521 26.775C172.514 25.5901 170.902 23.8337 169.888 21.7279C168.874 19.6222 168.505 17.2616 168.826 14.9448C169.257 11.8385 170.898 9.03128 173.389 7.14076C175.879 5.25024 179.015 4.43121 182.107 4.86382Z" fill="#2B1D7F"/>
<path fill-rule="evenodd" clip-rule="evenodd" d="M162.648 6.84016C164.583 7.11114 166.395 7.95275 167.854 9.25854C169.314 10.5643 170.355 12.2757 170.846 14.1761C171.338 16.0765 171.257 18.0807 170.615 19.9352C169.973 21.7896 168.798 23.4111 167.239 24.5945C165.679 25.7779 163.806 26.47 161.855 26.5834C159.904 26.6968 157.964 26.2264 156.279 25.2316C154.594 24.2368 153.241 22.7623 152.39 20.9946C151.539 19.2269 151.23 17.2454 151.5 15.3007C151.862 12.6934 153.239 10.3373 155.33 8.75067C157.421 7.16405 160.053 6.47683 162.648 6.84016Z" fill="#2B1D7F"/>
<path fill-rule="evenodd" clip-rule="evenodd" d="M162.368 7.61318C163.905 7.82862 165.345 8.49737 166.504 9.53484C167.663 10.5723 168.49 11.9319 168.881 13.4417C169.271 14.9516 169.207 16.5438 168.697 18.017C168.186 19.4903 167.253 20.7784 166.014 21.7186C164.775 22.6587 163.287 23.2086 161.737 23.2987C160.187 23.3888 158.646 23.0151 157.307 22.2249C155.969 21.4346 154.894 20.2633 154.218 18.859C153.542 17.4547 153.295 15.8805 153.51 14.3356C153.652 13.3097 153.994 12.3221 154.516 11.4291C155.039 10.5361 155.731 9.75515 156.553 9.13092C157.376 8.50669 158.313 8.05137 159.31 7.79095C160.308 7.53054 161.347 7.47013 162.368 7.61318Z" fill="white"/>
<path fill-rule="evenodd" clip-rule="evenodd" d="M165.95 10.0963C166.512 10.1752 167.038 10.4198 167.462 10.7993C167.886 11.1787 168.189 11.676 168.332 12.2282C168.474 12.7804 168.451 13.3628 168.264 13.9017C168.078 14.4405 167.737 14.9117 167.284 15.2556C166.83 15.5996 166.286 15.8008 165.719 15.8339C165.152 15.867 164.589 15.7304 164.099 15.4415C163.609 15.1526 163.216 14.7243 162.969 14.2108C162.721 13.6973 162.631 13.1215 162.709 12.5564C162.815 11.7986 163.215 11.1139 163.823 10.6526C164.43 10.1913 165.195 9.99126 165.95 10.0963Z" fill="#23272F"/>
<path fill-rule="evenodd" clip-rule="evenodd" d="M167.361 13.5856C167.544 13.6107 167.715 13.6897 167.853 13.8127C167.991 13.9357 168.09 14.0971 168.137 14.2765C168.183 14.4559 168.176 14.6451 168.116 14.8204C168.055 14.9956 167.945 15.1489 167.798 15.2609C167.65 15.3728 167.474 15.4384 167.289 15.4492C167.105 15.4601 166.922 15.4158 166.763 15.322C166.604 15.2281 166.476 15.0889 166.395 14.922C166.315 14.7551 166.286 14.5679 166.311 14.3843C166.328 14.2625 166.368 14.1453 166.43 14.0392C166.492 13.9331 166.574 13.8403 166.671 13.7661C166.769 13.692 166.88 13.6378 166.998 13.6068C167.116 13.5759 167.24 13.5686 167.361 13.5856Z" fill="white"/>
<path fill-rule="evenodd" clip-rule="evenodd" d="M181.824 5.66767C183.726 5.93369 185.506 6.76047 186.941 8.04343C188.375 9.3264 189.398 11.0079 189.882 12.8754C190.365 14.7429 190.286 16.7124 189.655 18.5349C189.025 20.3574 187.87 21.951 186.338 23.1142C184.806 24.2774 182.965 24.958 181.048 25.0699C179.131 25.1818 177.224 24.7199 175.568 23.7427C173.913 22.7655 172.582 21.3169 171.746 19.58C170.909 17.8431 170.604 15.896 170.869 13.9849C171.224 11.4223 172.578 9.10635 174.632 7.54659C176.687 5.98682 179.273 5.31095 181.824 5.66767Z" fill="white"/>
<path fill-rule="evenodd" clip-rule="evenodd" d="M185.668 9.32579C186.364 9.42319 187.015 9.72572 187.54 10.1951C188.064 10.6645 188.438 11.2797 188.615 11.9628C188.792 12.6459 188.763 13.3664 188.532 14.033C188.301 14.6996 187.879 15.2825 187.318 15.7078C186.758 16.1332 186.084 16.382 185.383 16.4228C184.682 16.4635 183.984 16.2944 183.379 15.9368C182.773 15.5792 182.286 15.0492 181.981 14.4137C181.675 13.7783 181.563 13.066 181.661 12.367C181.791 11.4298 182.286 10.5829 183.037 10.0125C183.789 9.44222 184.735 9.19519 185.668 9.32579Z" fill="#23272F"/>
<path fill-rule="evenodd" clip-rule="evenodd" d="M187.415 13.6419C187.641 13.673 187.853 13.7707 188.023 13.9227C188.194 14.0747 188.315 14.2741 188.373 14.4957C188.431 14.7172 188.422 14.951 188.347 15.1673C188.272 15.3837 188.135 15.573 187.954 15.7111C187.772 15.8493 187.553 15.9301 187.326 15.9434C187.098 15.9567 186.872 15.9019 186.675 15.7858C186.479 15.6698 186.321 15.4978 186.222 15.2916C186.123 15.0854 186.087 14.8543 186.119 14.6275C186.139 14.4772 186.189 14.3324 186.266 14.2015C186.342 14.0706 186.443 13.9561 186.564 13.8646C186.684 13.7731 186.821 13.7063 186.967 13.6681C187.114 13.6299 187.266 13.621 187.415 13.6419Z" fill="white"/>
<path d="M173.615 65.2962C190.647 65.2962 204.454 57.1072 204.454 47.0055C204.454 36.9038 190.647 28.7148 173.615 28.7148C156.584 28.7148 142.777 36.9038 142.777 47.0055C142.777 57.1072 156.584 65.2962 173.615 65.2962Z" fill="#4831D4"/>
<path fill-rule="evenodd" clip-rule="evenodd" d="M176.672 0.6784C180.748 -0.0307016 185.102 1.78429 182.955 2.21436C180.807 2.64443 184.249 2.95418 187.222 3.12569C190.195 3.29721 191.237 4.99188 188.977 4.95093C186.717 4.90997 190.506 5.46291 191.914 7.03471C193.323 8.60651 193.894 9.59464 191.405 8.22252C188.916 6.8504 180.899 3.25625 176.629 3.17945C172.359 3.10266 172.563 1.39518 176.672 0.6784Z" fill="white"/>
<path fill-rule="evenodd" clip-rule="evenodd" d="M172.148 43.6673C173.789 43.6673 175.126 41.5323 175.126 38.9135C175.126 36.2947 173.789 34.1597 172.148 34.1597C170.507 34.1597 169.16 36.2947 169.16 38.911C169.16 41.5272 170.51 43.6673 172.148 43.6673Z" fill="#2B1D7F"/>
<path fill-rule="evenodd" clip-rule="evenodd" d="M223.9 58.0413C221.969 58.477 220.145 59.2941 218.532 60.4451L223.9 58.0413Z" fill="#F4F2FD"/>
<path fill-rule="evenodd" clip-rule="evenodd" d="M217.8 59.4163C219.55 58.168 221.529 57.2817 223.622 56.8091L224.177 59.2736C222.41 59.6723 220.74 60.4202 219.263 61.474L217.8 59.4163Z" fill="#B6BCC9" stroke="#B6BCC9" stroke-width="2" stroke-miterlimit="22.93"/>
<path fill-rule="evenodd" clip-rule="evenodd" d="M133.999 52.4336C131.824 50.4798 129.22 49.3798 126.589 49.2841L126.681 46.7594C129.961 46.8787 133.115 48.2464 135.682 50.5524L133.999 52.4336Z" fill="#B6BCC9"/>
<path fill-rule="evenodd" clip-rule="evenodd" d="M169.738 11.7066C157.089 11.1409 150.343 16.3657 148.797 18.6184C149.584 8.19184 163.705 -2.89523 169.738 11.7066Z" fill="#4831D4"/>
<path fill-rule="evenodd" clip-rule="evenodd" d="M169.264 9.9351C181.913 9.37191 193.211 14.6684 194.755 16.9288C193.059 6.00048 179.725 -3.11543 169.264 9.9351Z" fill="#4831D4"/>
<path fill-rule="evenodd" clip-rule="evenodd" d="M143.939 79.9774C144.616 79.9774 145.072 80.6635 144.958 81.5134C144.843 82.3633 144.194 83.0493 143.513 83.0493C142.833 83.0493 142.38 82.3633 142.494 81.5134C142.609 80.6635 143.246 79.9774 143.939 79.9774Z" fill="#F4F2FD"/>
<path fill-rule="evenodd" clip-rule="evenodd" d="M147.034 82.6116C147.783 82.8164 148.081 83.7072 147.699 84.6032C147.317 85.4992 146.402 86.0624 145.661 85.8601C144.919 85.6579 144.614 84.7619 144.996 83.8659C145.378 82.97 146.287 82.4068 147.034 82.6116Z" fill="#F4F2FD"/>
<path fill-rule="evenodd" clip-rule="evenodd" d="M151.599 84.7337C152.718 84.9359 153.316 85.8294 152.934 86.7253C152.552 87.6213 151.339 88.1845 150.221 87.9797C149.103 87.7749 148.504 86.884 148.884 85.9881C149.263 85.0921 150.481 84.5238 151.599 84.7337Z" fill="#F4F2FD"/>
<path fill-rule="evenodd" clip-rule="evenodd" d="M198.088 78.9355C197.407 78.9355 196.954 79.6215 197.068 80.4714C197.183 81.3213 197.833 82.0074 198.513 82.0074C199.193 82.0074 199.647 81.3213 199.532 80.4714C199.417 79.6215 198.768 78.9355 198.088 78.9355Z" fill="#F4F2FD"/>
<path fill-rule="evenodd" clip-rule="evenodd" d="M197.649 82.4631C196.9 82.6653 196.605 83.5587 196.984 84.4547C197.364 85.3507 198.281 85.9139 199.022 85.7091C199.764 85.5043 200.067 84.6134 199.687 83.7174C199.308 82.8215 198.398 82.2583 197.649 82.4631Z" fill="#F4F2FD"/>
<path fill-rule="evenodd" clip-rule="evenodd" d="M194.61 84.5392C193.492 84.7414 192.893 85.6348 193.275 86.5308C193.657 87.4268 194.872 87.99 195.991 87.7877C197.109 87.5855 197.708 86.6895 197.326 85.7936C196.944 84.8976 195.728 84.3344 194.61 84.5392Z" fill="#F4F2FD"/>
<path fill-rule="evenodd" clip-rule="evenodd" d="M225.387 35.1402V34.6103V34.3748C225.721 32.8951 224.623 28.8786 228.09 31.0699C230.019 32.291 227.581 28.9912 227.362 28.7276C228.1 29.2137 228.667 29.9213 228.982 30.7499C229.728 32.6161 227.453 31.1262 227.252 31.029C224.873 29.8949 226.61 35.322 225.387 35.1402ZM232.656 44.9985C233.096 45.7895 235.618 51.0809 234.472 51.9385C233.438 52.7065 232.727 47.945 230.765 50.3129C229.876 51.383 227.481 53.198 225.958 52.6169C224.139 51.9154 230.169 47.1898 228.177 46.4346C227.858 46.3638 227.528 46.3569 227.206 46.4141C227.481 46.2821 227.787 46.2272 228.09 46.2554C230.638 46.601 225.517 51.9948 226.121 52.2021C227.395 52.6373 229.581 50.8531 230.345 49.9699C232.48 47.4995 233.321 50.9657 234.256 51.575C234.773 50.7635 232.954 45.7486 232.656 44.9985ZM225.387 34.3748V34.6103V35.1402C225.31 35.1264 225.235 35.0995 225.166 35.0608C223.8 34.3466 223.018 29.365 223.003 27.9442C223.161 28.8249 224.478 34.2007 225.319 34.6001C225.347 34.5303 225.37 34.4584 225.387 34.385V34.3748ZM218.382 23.6973V23.1418V22.7501C218.58 21.593 218.369 21.2475 220.519 20.5332C221.028 20.3668 222.473 20.098 222.85 19.8497C222.85 19.7473 222.068 19.3377 222.065 19.3377C224.007 19.7525 222.83 20.2081 221.627 20.6177C217.727 21.9233 219.446 22.3687 218.713 23.4567C218.678 23.5185 218.631 23.5721 218.573 23.6136C218.516 23.6552 218.451 23.6837 218.382 23.6973ZM192.175 61.894C192.068 63.174 191.838 66.461 190.391 67.2853C189.905 67.5643 189.775 67.1086 189.744 66.676V65.652C190.282 65.4524 190.175 66.2843 190.254 66.717C191.316 65.7288 191.889 63.0767 192.185 61.894H192.175ZM218.382 22.7501V23.1418V23.6973C217.408 23.8048 216.308 19.0254 216.308 19.0254C216.445 19.3557 217.694 22.6093 218.313 23.0983C218.341 22.9728 218.364 22.8577 218.382 22.7501ZM189.747 80.9681V80.492C189.953 80.3358 189.91 79.7931 189.747 79.1019V77.7707C190.292 79.0635 190.62 80.3665 190.037 80.8427C189.956 80.914 189.854 80.9556 189.747 80.9604V80.9681ZM189.747 48.6387V48.3622C189.882 48.2342 190.032 48.0858 190.203 47.9194C193.497 44.7323 191.785 50.446 193.596 50.9913C195.201 51.4726 194.819 47.0157 195.469 46.194C197.058 44.187 199.759 51.0015 199.988 51.086C201.096 50.2208 199.761 43.6289 199.478 42.4974C200.174 44.4353 201.422 49.0969 200.462 51.1219C199.81 52.494 199.122 50.4 198.337 48.9178C197.282 46.9236 195.79 44.8884 195.535 48.1293C195.471 48.9382 194.982 52.2252 193.295 51.3394C191.153 50.2131 193.364 45.4234 190.358 48.1011C190.142 48.2957 189.93 48.4826 189.736 48.6413L189.747 48.6387ZM198.245 22.7834C198.419 23.2493 200.65 30.6142 198.5 29.6952C196.875 28.9938 195.29 24.752 194.969 27.445C194.699 29.7157 194.478 32.6289 192.442 34.1341C191.28 34.9968 191.117 33.2331 191.094 32.4958C191.206 33.0078 191.405 34.6487 192.287 33.9217C194.159 32.3857 194.251 29.5851 194.457 27.399C194.804 23.7306 197.685 28.3794 198.347 29.0322C200.077 30.7192 198.268 22.8884 198.245 22.7834ZM189.747 66.676C189.731 66.4558 189.747 66.2408 189.747 66.1307C189.306 66.4661 186.944 68.8391 187.349 67.0574C187.604 67.8561 187.67 67.636 188.605 66.6222C189.156 66.0207 189.515 65.7365 189.749 65.652V66.676H189.747ZM189.747 48.3622V48.6387C188.998 49.248 188.486 49.4067 188.593 47.8144C188.748 49.1993 188.926 49.1533 189.747 48.3622ZM189.747 77.7707V79.1019C189.357 77.5071 188.305 75.111 188.126 74.7321C188.749 75.7009 189.291 76.7198 189.747 77.7784V77.7707ZM189.747 80.4817C188.147 79.6984 187.161 74.5247 185.138 77.7426C183.933 79.6625 182.728 81.6823 182.053 78.7922C181.908 83.3796 186.065 77.2895 186.07 77.2844C187.067 76.5625 188.6 81.0091 189.747 80.9681V80.492V80.4817ZM153.153 64.7356V64.1749V64.0751C153.477 63.3071 155.301 58.2743 156.434 61.6688C156.811 62.7926 156.712 63.5478 156.674 64.71C155.614 56.7383 154.246 63.8166 153.525 64.5154C153.427 64.6255 153.297 64.7024 153.153 64.7356ZM153.153 44.0385V43.3141C154.032 41.4325 154.761 37.4672 156.48 39.3871C157.076 40.0527 157.313 40.8924 157.609 41.7115C155.787 38.0534 155.107 38.3196 153.884 42.3822C153.729 42.9695 153.482 43.5285 153.153 44.0385ZM160.877 73.4777C161.438 74.5606 162.722 78.0728 161.688 79.2018C160.488 80.5073 159.586 75.39 158.376 76.3986C156.715 77.7861 153.663 82.5937 153.872 78.1701C154.012 79.0968 154.009 79.2248 154.149 79.5473C154.57 80.5047 157.206 76.8901 157.828 76.2399C159.825 74.128 160.541 79.0814 161.326 78.9202C162.238 78.7307 161.04 73.9923 160.877 73.4777ZM164.459 52.1996C164.424 52.9087 164.205 59.9895 166.064 59.457C167.552 59.0295 169.121 52.7141 171.654 59.8026C172.431 61.9939 174.293 62.5801 175.202 60.1789C175.001 62.3779 172.443 62.8771 171.279 59.9229C168.574 53.0776 168.171 60.4349 165.748 59.9229C163.484 59.4519 164.215 53.5845 164.459 52.1945V52.1996ZM153.153 43.3141V44.0308C152.244 45.3108 151.161 44.5275 150.43 42.2005C149.834 40.3036 150.323 34.4004 147.024 38.678C147.024 38.678 144.649 43.0299 144.221 40.982C143.584 37.9792 145.128 31.7662 146.405 29.0348C145.831 30.7038 143.653 39.7865 144.738 41.0357L144.756 41.0536C145.266 40.9487 148.343 34.3236 150.081 37.4109C150.692 38.5014 150.491 43.9259 152.264 44.2228C152.598 44.2766 152.886 43.8926 153.158 43.3089L153.153 43.3141ZM153.153 64.0751V64.1749V64.7356C151.795 64.9455 151.989 57.5831 152.004 57.3578C152.096 58.2359 152.514 63.5452 153.12 64.1468C153.12 64.1314 153.14 64.1058 153.153 64.0751ZM129.272 13.2374C129.017 13.6342 126.284 18.2959 126.916 18.6005C127.272 18.6286 135.577 12.728 133.165 16.5244L133.318 16.0124C133.896 13.7085 128.161 19.3864 126.832 19.1099C124.885 18.7054 128.954 13.583 129.272 13.2374ZM116.037 27.4758C115.89 28.2591 114.952 32.355 115.115 33.2331C116.735 32.0452 118.172 26.4057 119.151 33.4199C118.593 31.7048 118.402 31.1032 118.402 31.1032C117.597 28.9221 117.026 32.3832 115.464 33.635C113.36 35.3143 115.999 27.573 116.037 27.4758ZM118.06 42.4949C118.134 43.2321 118.781 49.4323 119.742 49.6934C120.674 48.7053 118.723 39.935 122.544 42.3285C123.945 43.2117 123.963 43.1118 123.109 41.1202L122.121 39.0518L123.331 41.0076L123.953 42.4386C124.462 44.082 122.029 42.4846 121.938 42.4386C119.39 41.284 121.53 50.1619 119.765 50.1516C118.093 50.1491 118.047 43.3729 118.06 42.4949Z" fill="#2B1D7F"/>
<path fill-rule="evenodd" clip-rule="evenodd" d="M131.692 47.8041L130.182 50.6866C129.969 51.0953 129.926 51.5718 130.063 52.012C130.199 52.4523 130.502 52.8206 130.908 53.0366L134.219 54.7902L137.338 48.8332L134.026 47.0797C133.62 46.8676 133.148 46.8248 132.711 46.9604C132.274 47.096 131.908 47.3992 131.692 47.8041Z" fill="#B6BCC9"/>
<path fill-rule="evenodd" clip-rule="evenodd" d="M134.767 48.8358C134.619 49.1215 134.589 49.4544 134.685 49.7619C134.78 50.0694 134.993 50.3264 135.277 50.4767L139.88 52.9087C140.164 53.0582 140.496 53.0883 140.802 52.9923C141.108 52.8963 141.364 52.6821 141.513 52.3967C141.662 52.1112 141.692 51.7779 141.596 51.4703C141.501 51.1626 141.288 50.9056 141.004 50.7558L136.403 48.3213C136.118 48.1725 135.786 48.1431 135.479 48.2395C135.173 48.3359 134.917 48.5503 134.767 48.8358Z" fill="#B6BCC9"/>
<path fill-rule="evenodd" clip-rule="evenodd" d="M132.77 52.6399C132.622 52.9256 132.592 53.2585 132.688 53.566C132.783 53.8735 132.996 54.1305 133.28 54.2808L137.881 56.7128C138.165 56.8617 138.497 56.8915 138.803 56.7956C139.11 56.6997 139.366 56.4858 139.516 56.2008C139.664 55.9151 139.694 55.5821 139.598 55.2747C139.503 54.9672 139.29 54.7102 139.007 54.5599L134.406 52.1254C134.121 51.9766 133.789 51.9472 133.482 52.0436C133.176 52.14 132.92 52.3544 132.77 52.6399Z" fill="#B6BCC9"/>
<path d="M217.28 66.1496L215.536 67.1283L211.662 60.1563L213.414 59.1737C213.414 59.1737 213.414 59.1737 213.414 59.1737C214.673 58.4673 215.828 58.4006 216.776 58.7002C217.732 59.0026 218.519 59.6918 219.006 60.5672C219.493 61.4426 219.669 62.4842 219.427 63.4746C219.188 64.4553 218.53 65.423 217.28 66.1496Z" fill="#B6BCC9" stroke="#B6BCC9"/>
<path d="M212.278 66.8695C212.278 66.8691 212.278 66.8688 212.277 66.8684L210.172 63.0832C210.172 63.083 210.172 63.0828 210.172 63.0826C209.938 62.6587 209.88 62.1587 210.012 61.692C210.144 61.2253 210.454 60.8308 210.874 60.5942C210.874 60.5942 210.874 60.5941 210.874 60.594L212.01 59.957L215.881 66.9292L214.744 67.5679C214.744 67.568 214.744 67.5681 214.744 67.5683C214.324 67.802 213.83 67.8597 213.368 67.7291C212.907 67.5984 212.515 67.2898 212.278 66.8695Z" fill="#B6BCC9" stroke="#B6BCC9"/>
<path fill-rule="evenodd" clip-rule="evenodd" d="M214.797 62.0528L212.527 63.3327C210.998 64.1929 209.725 62.1244 211.347 61.2105L213.617 59.9306C214.909 59.2036 216.343 61.1824 214.797 62.0528Z" fill="#595F6A"/>
<path fill-rule="evenodd" clip-rule="evenodd" d="M216.884 65.8056L214.611 67.0856C212.927 68.0327 211.867 65.8414 213.432 64.9634L215.704 63.6834C215.843 63.5915 216 63.5294 216.164 63.5009C216.328 63.4725 216.496 63.4784 216.658 63.5181C216.82 63.5579 216.972 63.6308 217.105 63.7322C217.237 63.8336 217.348 63.9614 217.429 64.1076C217.51 64.2537 217.56 64.4151 217.577 64.5817C217.593 64.7483 217.575 64.9165 217.524 65.0759C217.473 65.2352 217.39 65.3822 217.279 65.5078C217.169 65.6333 217.035 65.7347 216.884 65.8056Z" fill="#595F6A"/>
</g>
<defs>
<linearGradient id="paint0_linear_695_24400" x1="1.09249e-08" y1="94" x2="343.5" y2="95.5" gradientUnits="userSpaceOnUse">
<stop stop-color="#B6BCC9" stop-opacity="0"/>
<stop offset="0.526042" stop-color="#B6BCC9"/>
<stop offset="1" stop-color="#B6BCC9" stop-opacity="0"/>
</linearGradient>
<clipPath id="clip0_695_24400">
<rect width="348" height="96" fill="white"/>
</clipPath>
</defs>
</svg>
