<svg width="118" height="128" viewBox="0 0 118 128" fill="none" xmlns="http://www.w3.org/2000/svg">
<g clip-path="url(#clip0_695_24552)">
<path d="M36.4389 10.4847C37.4208 15.749 33.1515 20.3131 28.6406 22.1142C24.4842 23.7733 18.4896 23.0257 16.8647 18.1083C14.9826 12.4497 19.3742 7.1917 24.3933 5.31496C28.9292 3.62432 35.41 4.97431 36.4389 10.4847ZM20.4408 16.2631C20.6778 17.038 21.0744 17.754 21.6048 18.3646C22.1351 18.9752 22.7874 19.4667 23.5192 19.807C24.2509 20.1474 25.0457 20.329 25.8519 20.3402C26.6581 20.3513 27.4576 20.1916 28.1983 19.8715C31.4419 18.5468 33.4087 15.0898 32.6527 11.617C31.8842 8.06857 28.2611 6.30222 24.9046 7.51658C21.3254 8.8098 19.2582 12.5633 20.4502 16.2631H20.4408Z" fill="#FDCD10"/>
<path d="M59.9717 7.88562C60.0093 13.0332 54.6735 15.9162 50.3195 16.5029C45.8023 17.0958 40.7488 14.8248 39.7105 10.0052C38.4808 4.30877 44.5193 0.630991 49.2717 0.214638C53.8861 -0.176481 59.934 2.46673 59.9717 7.88562ZM43.4904 9.20722C43.9547 12.579 46.9912 14.7491 50.2975 14.3643C53.5473 13.9858 56.2262 11.3395 56.1008 7.97393C55.969 4.44756 52.7631 2.11346 49.3596 2.35318C45.7866 2.59289 42.9823 5.51682 43.4904 9.1946V9.20722Z" fill="#FDCD10"/>
<path d="M64.8262 5.65841C64.8858 3.7659 64.8481 2.21404 64.8011 0.791504C66.2346 0.930288 66.953 1.01545 68.3866 1.21101L68.4179 3.75013H68.5058C70.2154 2.17304 72.957 1.48858 76.4578 2.3339C80.3821 3.28016 85.1125 7.15981 84.2593 11.7744C83.4186 16.3164 77.9008 17.6822 74.0612 17.0576C71.514 16.6413 69.3214 15.5373 68.2234 13.9634H68.1419C67.9443 17.146 67.8439 18.7388 67.6463 21.9214C66.3131 21.8236 65.6449 21.7889 64.3086 21.7448L64.8262 5.65841ZM68.3897 9.97334C68.3773 10.3451 68.411 10.717 68.4901 11.0805C69.0453 13.0014 71.1815 14.4523 73.6848 14.9349C76.6837 15.5121 80.0401 14.1905 80.5326 10.8344C81.0377 7.36483 78.1517 4.75947 75.0117 4.14125C72.3673 3.62081 69.7448 4.50713 68.8759 6.40595C68.7004 6.73283 68.5886 7.0904 68.5465 7.45945L68.3897 9.97334Z" fill="#FDCD10"/>
<path d="M87.3917 17.5025C88.7009 18.615 90.1713 19.5201 91.752 20.1867C94.2772 21.2087 95.7045 20.9595 96.0339 19.9407C96.3789 18.8714 95.5822 17.7675 93.1134 16.0232C89.8134 13.6954 88.2199 11.5411 88.7218 10.2353C89.7914 7.44067 94.2866 8.17875 96.8777 9.48459C98.6408 10.3503 100.263 11.4797 101.69 12.8343C101.094 13.2696 100.799 13.4904 100.212 13.9383C99.0761 12.7829 97.744 11.8408 96.2785 11.1563C94.0827 10.1186 92.6084 10.4119 92.3543 11.3676C92.0688 12.4338 93.1762 13.3895 95.579 15.2031C98.7818 17.6192 100.215 19.9502 99.4562 21.3885C98.1136 23.9339 93.8098 22.9656 91.1905 21.8616C89.1923 21.0194 87.3007 20.0353 86.0742 19.0481C86.5918 18.4172 86.849 18.1081 87.3917 17.5025Z" fill="#FDCD10"/>
<path d="M108.877 123.748C108.877 126.098 86.4041 128 58.6865 128C30.9688 128 8.49609 126.107 8.49609 123.748C8.49609 121.389 30.9688 119.493 58.6865 119.493C86.4041 119.493 108.877 121.398 108.877 123.748Z" fill="#F1F3F9"/>
<path d="M39.3276 112.112L31.0838 56.8667C29.3177 61.9418 24.9668 66.7961 20.6505 73.5429C19.1667 75.8612 14.8127 82.8887 14.8127 82.8887L17.1246 81.3463C15.8698 83.5133 14.2732 89.38 14.8253 93.7107L16.5631 92.2598L17.7457 100.669L18.2351 97.4642C23.9254 109.45 39.3276 112.112 39.3276 112.112Z" fill="#2B1D7F"/>
<path d="M102.671 85.2071C102.671 85.2071 102.144 82.2926 99.8919 78.8199L101.664 79.4507C101.664 79.4507 88.3951 61.6106 86.6071 56.5166L78.4512 111.825C78.4512 111.825 96.9212 108.63 100.88 93.5247L102.135 95.4992C102.71 91.7158 102.453 87.8516 101.382 84.1788L102.671 85.2071Z" fill="#2B1D7F"/>
<path d="M95.665 78.2963V78.2458C95.6117 77.9966 95.5584 77.7506 95.4988 77.5046C96.3104 78.6241 97.2355 79.6558 98.2592 80.583C95.2039 74.3441 91.0444 65.2442 91.013 65.1969C88.4439 59.062 85.4952 51.6686 83.4845 40.5754C81.4737 29.4821 75.3066 20.1488 63.9447 18.2185L66.3194 16.7329L58.612 17.8621L59.4464 15.4712L50.4937 19.4392C41.9206 22.7731 37.0741 30.9992 35.4084 40.5722C32.8392 55.3117 28.3002 63.2035 25.3044 70.477C23.921 73.5902 22.1675 77.4667 20.6367 80.5704C20.6367 80.5704 21.7221 79.3718 22.9674 77.6907C22.9298 77.8704 22.8921 78.0534 22.8576 78.2332C22.0452 82.3967 20.0344 87.2163 20.8124 92.0359C21.4187 90.952 21.9208 89.8123 22.3118 88.6325C22.4514 93.0665 22.8368 97.4893 23.4662 101.88C24.5046 100.945 25.3278 99.793 25.8785 98.5051C26.0353 98.7543 26.1922 98.9972 26.3647 99.2369C26.3723 101.689 26.8351 104.118 27.7292 106.4L30.5336 104.29L32.2746 109.135C32.2746 109.135 33.6988 108.92 33.7082 107.558L35.0068 113.235C35.0068 113.235 35.9479 112.472 35.7283 111.532C35.7754 111.787 36.0953 113.361 36.8576 114.194V112.973C37.6166 113.884 38.444 114.735 39.3326 115.519C39.3326 115.519 31.8856 115.519 29.969 121.338C29.8328 121.76 29.7978 122.208 29.8668 122.645C29.9358 123.083 30.1069 123.498 30.3661 123.856C30.6253 124.215 30.9651 124.507 31.3579 124.708C31.7507 124.909 32.1852 125.013 32.6259 125.013H51.5854C51.9952 125.014 52.4003 124.924 52.772 124.75C53.1436 124.577 53.4726 124.323 53.7357 124.007C53.9988 123.691 54.1896 123.32 54.2945 122.922C54.3994 122.523 54.4158 122.107 54.3427 121.701C54.0828 120.196 53.3815 118.803 52.3288 117.702C52.3288 117.702 51.6544 112.115 59.4558 112.115C60.102 112.115 60.7451 112.115 61.385 112.084L61.3411 112.115C69.1426 112.115 68.4681 117.702 68.4681 117.702C67.4154 118.803 66.7141 120.196 66.4542 121.701C66.3811 122.107 66.3975 122.523 66.5024 122.922C66.6073 123.32 66.7981 123.691 67.0612 124.007C67.3243 124.323 67.6534 124.577 68.025 124.75C68.3966 124.924 68.8017 125.014 69.2116 125.013H88.171C88.6117 125.013 89.0462 124.909 89.439 124.708C89.8318 124.507 90.1717 124.215 90.4308 123.856C90.69 123.498 90.8611 123.083 90.9301 122.645C90.9991 122.208 90.9641 121.76 90.8279 121.338C88.9113 115.519 81.4643 115.519 81.4643 115.519C82.3465 114.743 83.1677 113.899 83.9205 112.995V114.888C84.6827 114.058 85.0027 112.484 85.0529 112.229C84.8396 113.175 85.7744 113.932 85.7744 113.932L87.0668 108.255C87.0668 109.605 88.5004 109.832 88.5004 109.832L90.2445 104.996L93.0457 107.107C94.5891 103.385 94.5107 99.341 94.3005 97.1551C94.5198 98.038 94.9662 98.8473 95.595 99.5017C96.2239 100.156 97.0129 100.633 97.8828 100.883C97.0139 97.6472 96.4367 96.108 96.1387 88.4496C96.1795 88.0742 96.2109 87.7052 96.2391 87.3425C96.6349 88.9863 97.2512 90.5685 98.071 92.0454C98.8239 87.3835 96.6155 82.7184 95.7372 78.6495L95.665 78.2963Z" fill="#3A27AA"/>
<path d="M28.6 125.01C28.5683 125.01 28.537 125.003 28.5082 124.989C28.4794 124.976 28.4539 124.956 28.4333 124.932C28.4127 124.908 28.3976 124.879 28.389 124.849C28.3805 124.818 28.3786 124.786 28.3836 124.754C28.5279 123.874 29.1459 121.017 31.0845 121.408C33.5532 121.903 33.5532 125.01 33.5532 125.01H28.6Z" fill="#2F6FED"/>
<path d="M31.5563 122.149C31.5563 122.401 31.1861 122.606 30.7313 122.606C30.2764 122.606 29.9062 122.401 29.9062 122.149C29.9062 121.897 30.2764 121.695 30.7313 121.695C31.1861 121.695 31.5563 121.9 31.5563 122.149Z" fill="#1E4EAE"/>
<path d="M33.5527 125.01C33.9072 124.398 34.3558 121.54 36.3007 121.341C38.3679 121.136 39.6854 125.01 39.6854 125.01H33.5527Z" fill="#2F6FED"/>
<path d="M37.3121 122.263C37.3121 122.578 36.9482 122.83 36.4965 122.83C36.0448 122.83 35.6777 122.575 35.6777 122.263C35.6777 121.95 36.0448 121.695 36.4965 121.695C36.9482 121.695 37.3121 121.947 37.3121 122.263Z" fill="#1E4EAE"/>
<path d="M39.6855 125.01C39.6855 125.01 39.88 120.594 43.3118 120.225C47.1074 119.805 47.9826 125.01 47.9826 125.01H39.6855Z" fill="#2F6FED"/>
<path d="M45.4013 121.345C45.4013 121.777 44.6798 122.124 43.7921 122.124C42.9043 122.124 42.1797 121.777 42.1797 121.345C42.1797 120.912 42.9012 120.565 43.7921 120.565C44.6829 120.565 45.4013 120.916 45.4013 121.345Z" fill="#1E4EAE"/>
<path d="M91.7313 125.01C91.763 125.01 91.7944 125.003 91.8232 124.989C91.852 124.976 91.8775 124.956 91.8981 124.932C91.9187 124.908 91.9337 124.879 91.9423 124.849C91.9509 124.818 91.9528 124.786 91.9478 124.754C91.8035 123.874 91.1855 121.017 89.2469 121.408C86.7656 121.903 86.7656 125.01 86.7656 125.01H91.7313Z" fill="#2F6FED"/>
<path d="M90.3195 122.546C90.3195 122.893 89.9055 123.177 89.3941 123.177C88.8828 123.177 88.4688 122.9 88.4688 122.546C88.4688 122.193 88.8828 121.916 89.3941 121.916C89.9055 121.916 90.3195 122.203 90.3195 122.546Z" fill="#1E4EAE"/>
<path d="M86.7654 125.01C86.411 124.398 85.9624 121.54 84.0175 121.341C81.9472 121.136 80.6328 125.01 80.6328 125.01H86.7654Z" fill="#2F6FED"/>
<path d="M84.8235 122.521C84.8235 122.881 84.3969 123.171 83.8825 123.171C83.368 123.171 82.9414 122.881 82.9414 122.521C82.9414 122.162 83.368 121.868 83.8825 121.868C84.3969 121.868 84.8235 122.158 84.8235 122.521Z" fill="#1E4EAE"/>
<path d="M80.6436 125.01C80.6436 125.01 80.4491 120.594 77.0174 120.225C73.2186 119.805 72.334 125.01 72.334 125.01H80.6436Z" fill="#2F6FED"/>
<path d="M78.4705 121.843C78.4705 122.442 77.6487 122.925 76.6386 122.925C75.6285 122.925 74.8066 122.442 74.8066 121.843C74.8066 121.244 75.6254 120.764 76.6386 120.764C77.6518 120.764 78.4705 121.247 78.4705 121.843Z" fill="#1E4EAE"/>
<path d="M46.4332 21.5589C46.4332 21.5589 40.15 14.6923 38.6443 16.4018C37.1386 18.1114 37.0759 25.4859 39.5289 28.9839C41.982 32.4819 46.4332 21.5589 46.4332 21.5589Z" fill="#2F6FED"/>
<path d="M44.6737 25.2556C45.7057 23.3631 46.4334 21.5589 46.4334 21.5589C46.4334 21.5589 40.1502 14.6923 38.6445 16.4018C38.8547 19.2406 43.9773 25.6594 44.6737 25.2556Z" fill="#1E4EAE"/>
<path d="M72.4707 21.5588C72.4707 21.5588 78.7445 14.6922 80.2565 16.4144C81.7685 18.1366 81.8249 25.4984 79.3719 28.9964C76.9188 32.4944 72.4707 21.5588 72.4707 21.5588Z" fill="#2F6FED"/>
<path d="M74.2176 25.2555C73.1887 23.363 72.4609 21.5588 72.4609 21.5588C72.4609 21.5588 78.7347 14.6922 80.2467 16.4144C80.0491 19.2405 74.9234 25.6593 74.2176 25.2555Z" fill="#1E4EAE"/>
<path d="M55.3961 33.7972C55.3961 34.8727 55.0789 35.924 54.4847 36.8183C53.8905 37.7125 53.0458 38.4095 52.0577 38.8211C51.0695 39.2327 49.9821 39.3403 48.933 39.1305C47.884 38.9207 46.9204 38.4028 46.164 37.6423C45.4077 36.8818 44.8927 35.9129 44.684 34.8581C44.4753 33.8032 44.5824 32.7099 44.9917 31.7162C45.4011 30.7226 46.0942 29.8733 46.9836 29.2758C47.8729 28.6783 48.9185 28.3594 49.9881 28.3594C51.4224 28.3594 52.7979 28.9323 53.8121 29.9521C54.8263 30.9719 55.3961 32.355 55.3961 33.7972Z" fill="#2B1D7F"/>
<path d="M53.5062 36.9227C55.454 34.9642 55.454 31.7888 53.5062 29.8302C51.5584 27.8717 48.4004 27.8717 46.4526 29.8302C44.5048 31.7888 44.5048 34.9642 46.4526 36.9227C48.4004 38.8813 51.5584 38.8813 53.5062 36.9227Z" fill="#FDF9FD"/>
<mask id="mask0_695_24552" style="mask-type:luminance" maskUnits="userSpaceOnUse" x="44" y="28" width="11" height="11">
<path d="M53.5062 36.9227C55.454 34.9642 55.454 31.7888 53.5062 29.8302C51.5584 27.8717 48.4004 27.8717 46.4526 29.8302C44.5048 31.7888 44.5048 34.9642 46.4526 36.9227C48.4004 38.8813 51.5584 38.8813 53.5062 36.9227Z" fill="white"/>
</mask>
<g mask="url(#mask0_695_24552)">
<path d="M51.294 33.7217C52.5325 32.4763 52.5325 30.4573 51.294 29.2119C50.0555 27.9666 48.0474 27.9666 46.8089 29.2119C45.5704 30.4573 45.5704 32.4763 46.8089 33.7217C48.0474 34.967 50.0555 34.967 51.294 33.7217Z" fill="#1B1F27"/>
<path d="M50.1397 29.9964C50.1403 30.1362 50.0996 30.2731 50.0228 30.3897C49.946 30.5063 49.8365 30.5974 49.7081 30.6514C49.5798 30.7053 49.4384 30.7198 49.3019 30.6929C49.1654 30.6659 49.0399 30.5989 48.9413 30.5002C48.8427 30.4015 48.7755 30.2756 48.7481 30.1385C48.7207 30.0014 48.7345 29.8591 48.7876 29.7299C48.8406 29.6006 48.9307 29.49 49.0463 29.4123C49.1619 29.3345 49.2979 29.293 49.437 29.293C49.6228 29.293 49.8011 29.367 49.9328 29.4988C50.0645 29.6306 50.1389 29.8095 50.1397 29.9964Z" fill="white"/>
</g>
<path d="M61.4411 27.3186C61.2152 26.4449 62.219 24.6123 64.7223 23.4516C69.1139 21.4077 72.7809 23.2529 73.1919 23.8269C72.597 23.7284 71.9934 23.6945 71.3913 23.726C72.4894 24.1175 73.4947 24.734 74.3435 25.5365C75.1923 26.339 75.8662 27.3099 76.3225 28.3879C75.6803 27.8085 74.9354 27.3559 74.1267 27.0536C75.0123 28.0911 75.6029 29.3498 75.8363 30.6967C75.8363 30.6967 73.7408 27.9431 70.9615 26.877C68.6308 25.9844 66.7079 26.6215 65.1583 27.3691C63.3107 28.2743 61.8206 28.779 61.4411 27.3186Z" fill="#2B1D7F"/>
<path d="M57.4103 27.2554C57.7554 26.4227 57.0182 24.4639 54.7032 22.9594C50.6252 20.313 46.7543 21.6252 46.2775 22.1362C46.8804 22.1226 47.483 22.1744 48.0749 22.2907C46.932 22.5232 45.8495 22.9917 44.8959 23.6666C43.9423 24.3414 43.1385 25.208 42.5352 26.2114C43.247 25.7292 44.0431 25.3867 44.8816 25.202C43.8614 26.1032 43.1027 27.265 42.6857 28.5644C42.6857 28.5644 45.1451 26.1357 48.0435 25.4733C50.4778 24.9181 52.294 25.8234 53.7245 26.7823C55.4247 27.9367 56.83 28.6464 57.4103 27.2554Z" fill="#2B1D7F"/>
<path d="M74.4469 33.7972C74.4469 34.8727 74.1297 35.924 73.5355 36.8183C72.9412 37.7125 72.0966 38.4095 71.1084 38.8211C70.1202 39.2327 69.0329 39.3403 67.9838 39.1305C66.9348 38.9207 65.9712 38.4028 65.2148 37.6423C64.4585 36.8818 63.9434 35.9129 63.7348 34.8581C63.5261 33.8032 63.6332 32.7099 64.0425 31.7162C64.4518 30.7226 65.145 29.8733 66.0343 29.2758C66.9237 28.6783 67.9693 28.3594 69.0389 28.3594C70.4732 28.3594 71.8487 28.9323 72.8629 29.9521C73.8771 30.9719 74.4469 32.355 74.4469 33.7972Z" fill="#2B1D7F"/>
<path d="M70.9469 38.0087C73.4918 36.9488 74.7003 34.0151 73.6462 31.4561C72.592 28.8971 69.6744 27.682 67.1295 28.7419C64.5846 29.8019 63.376 32.7356 64.4302 35.2945C65.4843 37.8535 68.402 39.0687 70.9469 38.0087Z" fill="#FDF9FD"/>
<mask id="mask1_695_24552" style="mask-type:luminance" maskUnits="userSpaceOnUse" x="64" y="28" width="11" height="11">
<path d="M70.9469 38.0087C73.4918 36.9488 74.7003 34.0151 73.6462 31.4561C72.592 28.8971 69.6744 27.682 67.1295 28.7419C64.5846 29.8019 63.376 32.7356 64.4302 35.2945C65.4843 37.8535 68.402 39.0687 70.9469 38.0087Z" fill="white"/>
</mask>
<g mask="url(#mask1_695_24552)">
<path d="M71.1927 32.1949C71.5951 30.4808 70.5393 28.7634 68.8346 28.3588C67.1299 27.9542 65.4219 29.0158 65.0195 30.7299C64.6172 32.444 65.6729 34.1615 67.3776 34.566C69.0823 34.9706 70.7904 33.909 71.1927 32.1949Z" fill="#1B1F27"/>
<path d="M69.1963 29.9959C69.197 30.1359 69.1562 30.2729 69.0792 30.3896C69.0023 30.5063 68.8925 30.5973 68.764 30.6512C68.6355 30.705 68.494 30.7193 68.3574 30.6921C68.2208 30.665 68.0953 30.5976 67.9968 30.4986C67.8984 30.3996 67.8314 30.2734 67.8044 30.1361C67.7774 29.9987 67.7915 29.8564 67.8451 29.7272C67.8987 29.598 67.9892 29.4876 68.1053 29.4102C68.2213 29.3328 68.3576 29.2919 68.4968 29.2925C68.6823 29.2925 68.8603 29.3666 68.9915 29.4985C69.1226 29.6304 69.1963 29.8093 69.1963 29.9959Z" fill="white"/>
</g>
<path d="M69.4123 41.5027C70.8019 38.7901 67.3701 33.1945 61.959 36.0869L69.4123 41.5027Z" fill="#3A27AA"/>
<path d="M69.4118 41.5029L69.4463 41.3705C69.4463 41.3263 69.4714 41.2727 69.4903 41.2096C69.5091 41.1465 69.5122 41.0771 69.5248 40.9951C69.5523 40.8051 69.5639 40.613 69.5593 40.421C69.5536 40.174 69.5252 39.928 69.4746 39.6861C69.4161 39.4032 69.3343 39.1257 69.2299 38.8566C69.1068 38.5608 68.9632 38.2741 68.8001 37.9986C68.6189 37.7117 68.4154 37.4396 68.1916 37.1848C67.9584 36.9267 67.6987 36.6941 67.4168 36.4909C66.8693 36.0841 66.2396 35.8031 65.5723 35.6677C65.2615 35.6118 64.9468 35.5812 64.6312 35.5762C64.4806 35.5762 64.3175 35.5762 64.1858 35.5762C64.0449 35.5826 63.9046 35.5974 63.7654 35.6204C63.4956 35.6519 63.251 35.7118 63.0283 35.756L62.4605 35.9137C62.1468 36.0178 61.9648 36.0714 61.9648 36.0714C61.9648 36.0714 62.1186 35.961 62.3977 35.7749C62.542 35.6898 62.7114 35.5888 62.931 35.4816C63.1691 35.3663 63.4155 35.2693 63.6682 35.1914C63.814 35.1422 63.9628 35.1021 64.1136 35.0715C64.2735 35.0333 64.4361 35.0069 64.5998 34.9927C64.9592 34.9484 65.3227 34.9484 65.6821 34.9927C66.0697 35.042 66.4499 35.1384 66.8145 35.2797C67.1882 35.4322 67.543 35.628 67.8716 35.8632C68.1916 36.108 68.4859 36.3849 68.75 36.6896C68.9914 36.9912 69.2016 37.3167 69.3773 37.6611C69.6916 38.2702 69.8704 38.9407 69.9012 39.6262C69.9012 39.7744 69.9012 39.9195 69.9012 40.0552C69.9012 40.1908 69.873 40.317 69.8447 40.4368C69.8064 40.6403 69.7465 40.8391 69.6659 41.0298C69.6169 41.1519 69.5549 41.2682 69.4808 41.3768L69.4118 41.5029Z" fill="#2B1D7F"/>
<path d="M59.0317 39.3199C58.3604 39.4208 57.548 38.3925 57.2531 38.4651C57.1055 38.4864 56.9653 38.5438 56.845 38.6324C56.7247 38.7209 56.6278 38.8379 56.563 38.9729C56.352 39.3181 56.1714 39.6811 56.0234 40.058C56.0234 40.058 57.4821 39.6416 57.3409 39.8687C57.1998 40.0958 56.8077 40.9884 57.0429 41.2471C57.2782 41.5057 57.984 41.4553 58.0969 41.4426C58.2099 41.43 58.5581 41.7581 58.6867 41.2408C58.8153 40.7235 58.6522 39.6321 59.0317 39.3199Z" fill="#B35E09"/>
<path d="M58.6387 39.5502C58.682 39.4982 58.7292 39.4497 58.7798 39.4051C58.9057 39.2861 59.0434 39.1804 59.1908 39.0896C59.3973 38.961 59.6171 38.8552 59.8464 38.7742C59.9783 38.7332 60.1123 38.6995 60.2479 38.6733C60.3907 38.6461 60.5355 38.6303 60.6808 38.626H60.9035L61.1262 38.6512C61.2731 38.6705 61.4172 38.7065 61.556 38.7585C61.6878 38.8128 61.8147 38.8782 61.9356 38.954C62.0344 39.0348 62.1287 39.1212 62.2179 39.2127C62.2837 39.3136 62.3371 39.4051 62.381 39.4871C62.4155 39.5579 62.4398 39.6333 62.4531 39.711C62.4703 39.7761 62.4819 39.8426 62.4876 39.9097C62.4876 39.9097 62.4218 39.8656 62.3277 39.793C62.2747 39.7508 62.2191 39.7118 62.1614 39.6763L61.9387 39.5596C61.854 39.5281 61.763 39.5028 61.6783 39.4681C61.5936 39.4334 61.487 39.424 61.3803 39.4145C61.2737 39.4051 61.1733 39.3861 61.0666 39.3893C60.9507 39.3814 60.8344 39.3814 60.7184 39.3893C60.599 39.3894 60.4796 39.3957 60.3608 39.4082C60.2385 39.4082 60.1193 39.4303 60.0001 39.4366L59.3413 39.4997C59.1406 39.4997 58.9712 39.5249 58.8488 39.5281L58.6387 39.5502Z" fill="#2B1D7F"/>
<path d="M62.2276 38.3896C62.2276 38.3896 62.2589 38.437 62.3029 38.5158C62.3468 38.5947 62.4001 38.7019 62.4566 38.8312C62.5726 39.0836 62.6887 39.399 62.8016 39.686C62.8204 39.7617 62.8612 39.8216 62.8832 39.8942C62.9051 39.9667 62.9396 40.0267 62.9679 40.0898C62.9961 40.1528 63.0243 40.2159 63.0557 40.2695C63.0871 40.3232 63.1184 40.3862 63.153 40.4336C63.1875 40.4809 63.2188 40.5313 63.2502 40.5787C63.2816 40.626 63.3192 40.6575 63.3443 40.6922C63.3694 40.7269 63.4353 40.8058 63.4353 40.8058C63.3896 40.8212 63.3422 40.8307 63.2941 40.8341C63.2367 40.8395 63.179 40.8395 63.1216 40.8341C63.0476 40.8237 62.9743 40.809 62.902 40.79C62.818 40.7589 62.7371 40.7198 62.6605 40.6733C62.575 40.6197 62.496 40.5561 62.4252 40.484C62.2799 40.3306 62.1668 40.1493 62.0927 39.951C62.0212 39.7632 61.9799 39.5651 61.9703 39.3643C61.9632 39.1935 61.9801 39.0225 62.0205 38.8565C62.0504 38.7359 62.0946 38.6194 62.1523 38.5095C62.1738 38.4674 62.199 38.4273 62.2276 38.3896Z" fill="#2B1D7F"/>
<path d="M59.4744 31.3337C57.3539 31.0688 56.2246 34.4122 56.5979 35.9041C56.9712 37.3961 61.8365 36.6643 62.0906 34.98C62.3447 33.2956 60.9488 31.523 59.4744 31.3337Z" fill="#2F6FED"/>
<path d="M56.7453 35.9577C56.6835 35.8311 56.6553 35.6906 56.6635 35.5498C56.6717 35.409 56.716 35.2728 56.7922 35.1544C56.8683 35.0359 56.9736 34.9393 57.0978 34.8739C57.2221 34.8085 57.3611 34.7766 57.5013 34.7812C58.1286 34.7812 59.4806 35.9987 58.847 36.2794C58.0439 36.6169 56.8927 36.2037 56.7453 35.9577Z" fill="#2B1D7F"/>
<path d="M60.7786 35.8504C60.3207 35.8504 60.5747 34.8474 61.2021 34.4373C61.8295 34.0273 61.9644 34.4373 61.7919 34.9735C61.7158 35.1971 61.5819 35.3963 61.4037 35.5504C61.2256 35.7045 61.0098 35.8081 60.7786 35.8504Z" fill="#2B1D7F"/>
<path d="M59.9091 32.0277C59.9091 32.2579 59.6299 32.4409 59.2817 32.4409C58.9335 32.4409 58.6543 32.2579 58.6543 32.0277C58.6543 31.7974 58.9335 31.6113 59.2817 31.6113C59.6299 31.6113 59.9091 31.7974 59.9091 32.0277Z" fill="#1E4EAE"/>
<path d="M58.5005 32.5985C58.4885 32.6637 58.4542 32.7227 58.4035 32.7651C58.3528 32.8075 58.2889 32.8307 58.2229 32.8307C58.157 32.8307 58.0931 32.8075 58.0424 32.7651C57.9916 32.7227 57.9573 32.6637 57.9453 32.5985C57.9573 32.5332 57.9916 32.4743 58.0424 32.4319C58.0931 32.3894 58.157 32.3662 58.2229 32.3662C58.2889 32.3662 58.3528 32.3894 58.4035 32.4319C58.4542 32.4743 58.4885 32.5332 58.5005 32.5985Z" fill="#1E4EAE"/>
<path d="M60.8227 32.5448C60.8227 32.7026 60.6345 32.8287 60.4055 32.8287C60.1765 32.8287 59.9883 32.7026 59.9883 32.5448C59.9883 32.3871 60.1734 32.2578 60.4055 32.2578C60.6376 32.2578 60.8227 32.3871 60.8227 32.5448Z" fill="#1E4EAE"/>
<path d="M59.3108 32.9141C59.3272 32.978 59.3232 33.0455 59.2995 33.107C59.2757 33.1686 59.2333 33.2211 59.1783 33.2571C59.1233 33.2932 59.0584 33.3109 58.9928 33.308C58.9272 33.305 58.8642 33.2813 58.8127 33.2404C58.7611 33.1995 58.7237 33.1434 58.7055 33.0799C58.6874 33.0164 58.6896 32.9489 58.7117 32.8867C58.7338 32.8245 58.7747 32.7709 58.8287 32.7334C58.8828 32.6958 58.9471 32.6763 59.0128 32.6775C59.0834 32.6695 59.1544 32.6898 59.2102 32.7341C59.266 32.7784 59.3021 32.8431 59.3108 32.9141Z" fill="#1E4EAE"/>
<path d="M58.5017 33.3462C58.4916 33.4129 58.4562 33.4731 58.403 33.5143C58.3499 33.5554 58.2829 33.5743 58.2162 33.567C58.183 33.5751 58.1484 33.5754 58.1151 33.5681C58.0817 33.5607 58.0504 33.5459 58.0236 33.5246C57.9968 33.5034 57.9751 33.4763 57.9602 33.4454C57.9452 33.4145 57.9375 33.3806 57.9375 33.3462C57.9375 33.3119 57.9452 33.278 57.9602 33.2471C57.9751 33.2162 57.9968 33.1891 58.0236 33.1679C58.0504 33.1466 58.0817 33.1317 58.1151 33.1244C58.1484 33.1171 58.183 33.1174 58.2162 33.1254C58.2829 33.1182 58.3499 33.1371 58.403 33.1782C58.4562 33.2194 58.4916 33.2795 58.5017 33.3462Z" fill="#1E4EAE"/>
<path d="M57.1211 31.3212C57.2239 31.0526 57.3846 30.8103 57.5916 30.6115C57.687 30.509 57.792 30.416 57.9053 30.334C58.0352 30.2405 58.1726 30.1582 58.3163 30.088C58.479 30.0201 58.6482 29.9694 58.8213 29.9366C58.9116 29.9203 59.0027 29.9088 59.0942 29.9019H59.3734C59.5575 29.9217 59.7393 29.9597 59.9161 30.0154C60.0763 30.0828 60.2315 30.1619 60.3803 30.252C60.5152 30.3498 60.6407 30.4507 60.7536 30.5453C60.8666 30.6399 60.9418 30.7661 61.0234 30.8607C61.105 30.9554 61.1018 30.9585 61.1332 31.0058L61.2116 31.1509C61.2618 31.2392 61.2994 31.3212 61.3308 31.3875C61.3643 31.4561 61.3936 31.5266 61.4186 31.5988C61.4186 31.5988 61.3402 31.561 61.2179 31.4884C61.1551 31.4506 61.0799 31.4064 61.0014 31.3528C60.9153 31.2921 60.8251 31.2373 60.7317 31.1888C60.6281 31.132 60.5215 31.0752 60.418 31.009L60.0666 30.8481C59.9474 30.7976 59.8188 30.7693 59.6965 30.7188C59.5741 30.6683 59.4424 30.6589 59.3138 30.6589H59.1193C59.0566 30.6589 58.9907 30.6589 58.9279 30.6589C58.7993 30.6696 58.6715 30.6886 58.5452 30.7156C58.4229 30.7566 58.2943 30.7756 58.1814 30.826C58.0684 30.8765 57.9492 30.9112 57.8457 30.9554C57.6387 31.0468 57.4599 31.1351 57.3344 31.2014L57.1211 31.3212Z" fill="#2B1D7F"/>
<path d="M57.7617 29.6491C57.8283 29.4626 57.9355 29.2935 58.0754 29.1539C58.1432 29.0816 58.2178 29.0161 58.2981 28.9584C58.3892 28.8923 58.4857 28.8343 58.5867 28.7849C58.7005 28.7365 58.8194 28.7016 58.9412 28.6808C59.0691 28.6544 59.2001 28.647 59.3302 28.6587C59.4589 28.6745 59.5859 28.7019 59.7097 28.7407C59.8173 28.7906 59.922 28.8464 60.0234 28.9079C60.1175 28.9741 60.2022 29.0467 60.2838 29.1161C60.3653 29.1855 60.4155 29.2675 60.472 29.3369C60.5254 29.398 60.5707 29.4659 60.6069 29.5387C60.6414 29.6018 60.6665 29.6586 60.6884 29.7059C60.7104 29.7532 60.7512 29.8542 60.7512 29.8542C60.7025 29.8309 60.6553 29.8046 60.61 29.7753C60.5191 29.7311 60.4124 29.6397 60.2681 29.5671C60.196 29.5293 60.1207 29.4851 60.0485 29.4378C59.9764 29.3905 59.8823 29.3684 59.7976 29.3274C59.7129 29.2864 59.625 29.2738 59.5372 29.2359C59.4494 29.1981 59.3615 29.1949 59.2706 29.1949C59.1798 29.1855 59.0884 29.1855 58.9977 29.1949C58.9071 29.2029 58.8171 29.2155 58.7279 29.2328C58.6432 29.2643 58.5522 29.2738 58.4738 29.3116C58.3954 29.3495 58.3107 29.3716 58.2385 29.4031C57.9688 29.545 57.7617 29.6491 57.7617 29.6491Z" fill="#2B1D7F"/>
<path d="M92.8004 80.5171C90.6045 70.9095 86.4764 64.5286 86.4764 64.5286L88.8134 65.6578C85.7204 59.5418 80.5351 53.8264 74.7789 51.6626C69.1889 49.1077 61.5443 48.1615 54.1005 49.6723C46.1328 50.7195 36.4586 56.8702 36.4586 56.8702L39.7868 56.5295C39.4512 56.7535 35.3512 59.5355 32.3869 62.5225L34.865 62.0778C34.865 62.0778 32.183 65.355 29.0461 69.7677L31.496 68.6952C30.5742 71.2116 29.9191 73.8188 29.5417 76.4735C28.2416 81.7567 27.8848 87.23 28.4877 92.6387L30.0562 91.295C30.0562 91.295 30.8843 98.354 35.0752 104.672L34.4792 100.458C34.4792 100.458 38.0678 107.58 43.7519 110.586L42.6571 107.356C49.0532 110.946 56.359 112.087 61.3938 112.087C61.3938 112.087 73.9413 112.551 83.7222 101.773C85.6617 99.5743 87.1594 97.0187 88.1327 94.2473L90.1466 99.4549C92.0663 85.7152 89.789 76.4703 89.789 76.4703L92.8004 80.5171Z" fill="#4831D4"/>
<path d="M41.3456 45.698C41.3456 45.698 41.3205 45.8148 41.2641 46.0135C41.1839 46.2834 41.0789 46.5453 40.9504 46.7957C40.8719 46.9503 40.781 47.1111 40.6775 47.2972C40.5708 47.4788 40.4501 47.6518 40.3167 47.8145C40.1806 47.9923 40.0294 48.158 39.865 48.3097L39.3976 48.7891L38.8737 49.237C38.7044 49.3884 38.5193 49.5146 38.3467 49.6439C38.1742 49.7733 38.0111 49.9026 37.8386 50.0004L37.3618 50.2874C37.1249 50.4283 36.881 50.5568 36.6309 50.6722L36.3485 50.8078L36.3203 50.7542L36.5744 50.5744L36.8693 50.3725C36.9973 50.2888 37.1209 50.1982 37.2394 50.1013L37.6629 49.7606C37.8166 49.6439 37.9578 49.4988 38.1178 49.3601C38.2777 49.2213 38.4314 49.0793 38.582 48.9153L39.04 48.4359L39.4509 47.9154C39.5921 47.7483 39.7082 47.5653 39.8336 47.4013C39.9591 47.2373 40.0971 47.0859 40.2101 46.9439C40.323 46.802 40.4391 46.6569 40.5488 46.5308L40.7088 46.351C40.7559 46.2879 40.7998 46.2279 40.8469 46.1743C40.9347 46.0671 41.0131 45.9725 41.0821 45.8968C41.2201 45.7454 41.308 45.6665 41.308 45.6665L41.3456 45.698Z" fill="#2B1D7F"/>
<path d="M42.4335 50.0159C42.4486 50.0633 42.4601 50.1118 42.468 50.161C42.4922 50.2796 42.4922 50.402 42.468 50.5206C42.451 50.6042 42.428 50.6864 42.399 50.7666C42.3665 50.853 42.321 50.9338 42.2641 51.0063C42.2092 51.0867 42.1401 51.1562 42.0602 51.2114L41.828 51.3974L41.5834 51.5552C41.5043 51.6059 41.4202 51.6482 41.3324 51.6813C41.2564 51.721 41.1765 51.7527 41.094 51.7759L40.8713 51.8359C40.7608 51.8602 40.6486 51.8761 40.5356 51.8832H40.4102V51.8201L40.5231 51.7633C40.6194 51.7204 40.7127 51.6709 40.8023 51.6151L40.9748 51.5015C41.0375 51.4637 41.0909 51.4038 41.1536 51.3564C41.277 51.2518 41.3924 51.138 41.4987 51.0158C41.5476 50.9502 41.5926 50.8817 41.6335 50.8108C41.6775 50.7445 41.7088 50.672 41.7496 50.6121C41.7914 50.5559 41.8365 50.5021 41.8845 50.4512C41.9254 50.4021 41.9706 50.3567 42.0194 50.3156C42.0671 50.2754 42.1112 50.2311 42.1511 50.1831C42.1919 50.1389 42.2296 50.1042 42.2641 50.0727C42.3021 50.041 42.3419 50.0115 42.3833 49.9844L42.4335 50.0159Z" fill="#2B1D7F"/>
<path d="M39.6493 38.0993C39.6208 38.3571 39.5607 38.6102 39.4705 38.8532C39.3869 39.0945 39.282 39.3278 39.1568 39.5503C39.0125 39.7868 38.8212 40.0202 38.6549 40.2663C38.2942 40.7489 37.946 41.2314 37.6668 41.5816C37.3876 41.9317 37.2025 42.1682 37.2025 42.1682L37.1523 42.1335C37.1523 42.1335 37.2778 41.8623 37.466 41.4617C37.6542 41.0611 37.9397 40.5375 38.2126 40.0139C38.3412 39.7458 38.4479 39.4651 38.5796 39.2191C38.7087 38.9956 38.8578 38.7844 39.0251 38.5882C39.1901 38.3884 39.3787 38.2094 39.5866 38.0552L39.6493 38.0993Z" fill="#2B1D7F"/>
<path d="M38.4128 44.8271C38.4503 44.9277 38.4663 45.0352 38.4598 45.1425C38.458 45.2265 38.433 45.3084 38.3877 45.3791C38.3176 45.4417 38.2443 45.5007 38.1681 45.5557C37.9798 45.7275 37.7796 45.8856 37.569 46.0288L37.5156 45.991C37.5811 45.7429 37.6628 45.4995 37.7603 45.2624C37.7858 45.1735 37.8162 45.0861 37.8513 45.0006C37.9015 44.9329 37.9701 44.8814 38.0489 44.8523C38.1478 44.8093 38.2549 44.7889 38.3626 44.7924L38.4128 44.8271Z" fill="#2B1D7F"/>
<path d="M75.0305 46.0166C75.2013 46.1753 75.351 46.3555 75.4759 46.5528C75.6018 46.7417 75.7069 46.9437 75.7896 47.1553C75.8743 47.3855 75.9213 47.6536 75.9998 47.906C76.3135 48.9185 76.5613 49.9562 76.5613 49.9562L76.5048 49.9783C76.5048 49.9783 75.9872 49.032 75.5324 48.0857C75.4194 47.846 75.2752 47.6221 75.181 47.3918C75.0983 47.1793 75.0394 46.9582 75.0054 46.7326C74.9618 46.504 74.9502 46.2705 74.9709 46.0387L75.0305 46.0166Z" fill="#2B1D7F"/>
<path d="M49.6104 44.7171C49.6413 44.9103 49.6413 45.1073 49.6104 45.3006C49.6011 45.3887 49.5865 45.4761 49.5665 45.5624C49.5399 45.6626 49.4987 45.7582 49.4442 45.8463C49.3344 46.0355 49.1744 46.2121 49.0489 46.4014C48.9234 46.5906 48.7352 46.7357 48.6003 46.8871C48.5345 46.9629 48.4621 47.0326 48.3839 47.0953L48.1706 47.2593C47.9071 47.4643 47.7314 47.5747 47.7314 47.5747L47.6875 47.5274C47.6875 47.5274 47.8161 47.3476 48.0012 47.0922L48.1549 46.884C48.2091 46.8062 48.2583 46.7251 48.3023 46.6411C48.3996 46.4676 48.5125 46.291 48.616 46.1112C48.7195 45.9314 48.7509 45.7232 48.8387 45.5592C48.8827 45.4741 48.9423 45.411 48.9862 45.3258C49.0301 45.2406 49.0834 45.1713 49.1305 45.1019C49.2425 44.9415 49.3778 44.799 49.532 44.6792L49.6104 44.7171Z" fill="#2B1D7F"/>
<path d="M60.4592 45.4204C60.5444 45.4678 60.6191 45.5322 60.6788 45.6097C60.7246 45.6635 60.7512 45.7312 60.754 45.8021C60.7355 45.8778 60.7103 45.9517 60.6788 46.0229C60.6219 46.2293 60.5485 46.4308 60.4592 46.6253H60.3964C60.3071 46.4308 60.2337 46.2293 60.1768 46.0229C60.1453 45.9517 60.1201 45.8778 60.1016 45.8021C60.1044 45.7312 60.131 45.6635 60.1768 45.6097C60.2365 45.5322 60.3112 45.4678 60.3964 45.4204H60.4592Z" fill="#2B1D7F"/>
<path d="M68.6298 45.0605C68.7999 45.2897 68.944 45.5373 69.0595 45.7986C69.1129 45.9122 69.1662 46.0352 69.2164 46.1677C69.2666 46.3001 69.3356 46.4263 69.3858 46.5682C69.4893 46.8458 69.5583 47.1581 69.6555 47.4672C69.7528 47.7763 69.9128 48.0633 70.0351 48.3409C70.0978 48.4797 70.148 48.6216 70.217 48.7446L70.4053 49.0916C70.6405 49.5237 70.7911 49.8202 70.7911 49.8202L70.7409 49.8581C70.7409 49.8581 70.5307 49.6057 70.217 49.2272L69.963 48.9118C69.8714 48.7918 69.7886 48.6653 69.7151 48.5333L69.1976 47.6754C69.0533 47.3599 68.8839 47.0666 68.7615 46.767C68.7009 46.6273 68.6556 46.4813 68.6266 46.3317C68.6022 46.1991 68.5844 46.0654 68.5733 45.9311C68.5407 45.6471 68.5407 45.3603 68.5733 45.0763L68.6298 45.0605Z" fill="#2B1D7F"/>
<path d="M77.6166 39.8975C77.8279 40.0726 78.0184 40.2715 78.1844 40.4904C78.3546 40.7026 78.5058 40.9295 78.6361 41.1686C78.771 41.4304 78.8808 41.7332 79.0125 42.0234C79.2948 42.5817 79.5897 43.1368 79.7936 43.5658C79.9975 43.9947 80.1387 44.2849 80.1387 44.2849L80.0853 44.3196C80.0853 44.3196 79.8908 44.0704 79.6054 43.6888C79.3199 43.3071 78.9466 42.7867 78.5702 42.2663C78.4008 41.9981 78.2063 41.7427 78.062 41.484C77.9368 41.243 77.8319 40.9919 77.7483 40.7333C77.6583 40.4739 77.5972 40.2052 77.5664 39.9322L77.6166 39.8975Z" fill="#2B1D7F"/>
<path d="M80.4196 49.1519C80.5344 49.1899 80.641 49.2499 80.7333 49.3285C80.8128 49.3974 80.8825 49.477 80.9403 49.5651C80.9873 49.6597 80.9968 49.7858 81.0407 49.8962C81.1379 50.1107 81.2195 50.3441 81.2948 50.5113C81.37 50.6785 81.4171 50.8015 81.4171 50.8015L81.37 50.8393C81.37 50.8393 81.2665 50.7668 81.1191 50.6469C81.0317 50.5812 80.9489 50.5096 80.8713 50.4325C80.7866 50.3504 80.7019 50.2558 80.6141 50.1612C80.5233 50.0689 80.4384 49.9709 80.36 49.8679C80.3302 49.8182 80.309 49.7638 80.2972 49.707C80.286 49.6552 80.2807 49.6023 80.2815 49.5493C80.2784 49.422 80.3008 49.2954 80.3474 49.1771L80.4196 49.1519Z" fill="#2B1D7F"/>
<path d="M83.5372 49.3916C83.7179 49.5486 83.8772 49.7289 84.0108 49.9278C84.1473 50.1182 84.2639 50.3222 84.359 50.5366C84.4594 50.7731 84.519 51.0444 84.6131 51.303C85.0209 52.2998 85.3817 53.3438 85.3817 53.3438L85.3252 53.3722C85.3252 53.3722 84.6978 52.4606 84.152 51.5049C84.0265 51.262 83.8665 51.0349 83.763 50.8015C83.6691 50.5856 83.5976 50.3604 83.5497 50.1297C83.4954 49.8961 83.4712 49.6566 83.4776 49.4168L83.5372 49.3916Z" fill="#2B1D7F"/>
<path d="M82.7086 54.4478C82.8256 54.4918 82.9323 54.5594 83.0223 54.6465C83.0998 54.7174 83.1609 54.8046 83.2011 54.902C83.2356 55.0092 83.2293 55.1385 83.2544 55.2584C83.3153 55.5775 83.3593 55.8997 83.3862 56.2236L83.3266 56.2488C83.131 55.9888 82.9498 55.7182 82.7839 55.4382C82.7243 55.3309 82.6333 55.2395 82.5894 55.1385C82.5553 55.0371 82.5425 54.9297 82.5518 54.8231C82.5616 54.6988 82.5957 54.5777 82.6522 54.4667L82.7086 54.4478Z" fill="#2B1D7F"/>
<path d="M35.6798 54.9615C35.6872 55.1279 35.666 55.2944 35.617 55.4535C35.5979 55.5249 35.5727 55.5946 35.5418 55.6617C35.5082 55.7382 35.4639 55.8093 35.41 55.873C35.3002 56.0086 35.1402 56.1222 35.0148 56.2547C34.8893 56.3871 34.7356 56.4944 34.6038 56.5985C34.5348 56.6521 34.4752 56.7089 34.4093 56.7499L34.2243 56.8697C33.9953 57.0211 33.8416 57.1095 33.8416 57.1095L33.8008 57.0621C33.8008 57.0621 33.9074 56.9139 34.0706 56.7057C34.2337 56.4975 34.425 56.1979 34.6321 55.9235C34.723 55.7784 34.7858 55.6081 34.8799 55.4882C34.9289 55.4295 34.9813 55.3736 35.0367 55.321C35.0879 55.2682 35.1424 55.2187 35.1998 55.1728C35.3261 55.0656 35.4707 54.9822 35.6265 54.9268L35.6798 54.9615Z" fill="#2B1D7F"/>
<path d="M45.8906 44.1399C45.8528 44.3649 45.7842 44.5836 45.6867 44.7897C45.6446 44.8857 45.5975 44.9794 45.5455 45.0704C45.4862 45.1744 45.4146 45.2708 45.3322 45.3574C45.1659 45.5467 44.9495 45.7107 44.7613 45.8968C44.5731 46.0829 44.3535 46.2311 44.1621 46.3794C44.072 46.4551 43.9778 46.5256 43.8798 46.5907L43.61 46.761C43.2807 46.9724 43.0611 47.1048 43.0611 47.1048L43.0234 47.0512C43.0234 47.0512 43.1991 46.862 43.4689 46.5875L43.6853 46.3668C43.7637 46.2911 43.8328 46.1964 43.9112 46.1081C44.0649 45.9252 44.2249 45.7359 44.4005 45.5467C44.5762 45.3574 44.6734 45.124 44.8209 44.9505C44.8962 44.8622 44.9809 44.7897 45.0561 44.7077C45.1274 44.631 45.2028 44.5584 45.282 44.49C45.4495 44.3355 45.6374 44.2049 45.8404 44.1021L45.8906 44.1399Z" fill="#2B1D7F"/>
<path d="M43.7051 39.0615C43.6746 39.2795 43.6133 39.4919 43.5231 39.6924C43.4405 39.8911 43.3352 40.0795 43.2094 40.2538C43.0714 40.4399 42.8957 40.6103 42.7232 40.8027C42.0958 41.5628 41.39 42.2883 41.39 42.2883L41.3398 42.2504C41.3398 42.2504 41.801 41.361 42.3154 40.5062C42.444 40.2948 42.5476 40.0614 42.6793 39.8753C42.8038 39.7014 42.9481 39.5426 43.1091 39.4022C43.2706 39.2524 43.4522 39.126 43.6486 39.0269L43.7051 39.0615Z" fill="#2B1D7F"/>
<path d="M76.491 41.9126C76.6158 41.936 76.7344 41.9854 76.8392 42.0577C76.8844 42.0868 76.9265 42.1206 76.9646 42.1586C77.0085 42.2002 77.0446 42.2494 77.0713 42.3037C77.1246 42.4173 77.1403 42.5592 77.1842 42.6822C77.2281 42.8052 77.2532 42.9377 77.2752 43.0576C77.3012 43.1663 77.318 43.2771 77.3254 43.3888C77.3505 43.5812 77.3567 43.7042 77.3567 43.7042L77.2972 43.7231C77.2972 43.7231 77.2187 43.619 77.1183 43.4581C77.018 43.2973 76.8611 43.1017 76.7325 42.8967C76.6526 42.8114 76.5772 42.7219 76.5067 42.6286C76.4602 42.5289 76.4295 42.4224 76.4157 42.3132C76.3979 42.1857 76.4053 42.056 76.4376 41.9315L76.491 41.9126Z" fill="#2B1D7F"/>
<path d="M25.4666 73.9749C25.4955 74.1355 25.4955 74.3 25.4666 74.4607C25.4543 74.5321 25.4376 74.6027 25.4164 74.672C25.3886 74.7491 25.3528 74.8231 25.3097 74.8928C25.2156 75.0347 25.0713 75.1609 24.9616 75.306C24.8518 75.4511 24.72 75.5678 24.6008 75.6876C24.5412 75.7444 24.4879 75.8075 24.4283 75.8548L24.262 75.9936C24.0581 76.1671 23.917 76.2743 23.917 76.2743L23.873 76.2301C23.873 76.2301 23.9577 76.0724 24.0895 75.8485C24.2212 75.6245 24.3781 75.3123 24.5475 75.0189C24.6196 74.8675 24.6635 74.7035 24.742 74.5679C24.8234 74.4434 24.9181 74.3281 25.0243 74.2241C25.1391 74.1085 25.2728 74.0135 25.4195 73.9434L25.4666 73.9749Z" fill="#2B1D7F"/>
<path d="M23.4236 81.9205C23.4395 82.1612 23.4236 82.403 23.3765 82.6396C23.3369 82.8722 23.2749 83.1004 23.1914 83.3209C23.0942 83.5575 22.9436 83.7941 22.8244 84.0401C22.3978 85.04 21.9053 86.0304 21.9053 86.0304L21.8457 86.0083C21.8457 86.0083 22.0716 84.9296 22.3602 83.854C22.4417 83.5922 22.4919 83.3178 22.5829 83.0781C22.666 82.8577 22.7711 82.6463 22.8966 82.4472C23.0242 82.2435 23.177 82.057 23.3514 81.8921L23.4236 81.9205Z" fill="#2B1D7F"/>
<path d="M24.7004 87.7275C24.7004 87.7275 24.7004 87.8852 24.6565 88.1565C24.6408 88.2921 24.6188 88.453 24.5875 88.6391C24.5875 88.7337 24.5561 88.8315 24.5373 88.9356C24.5185 89.0397 24.5153 89.1469 24.5028 89.251C24.4808 89.4749 24.4494 89.7178 24.4118 89.9702C24.3742 90.2225 24.3679 90.4969 24.3271 90.7745C24.2863 91.052 24.2393 91.3391 24.2236 91.6356C24.2079 91.9321 24.1797 92.2317 24.1546 92.5313C24.1295 92.831 24.1546 93.137 24.1546 93.4334C24.1602 93.7247 24.1822 94.0153 24.2205 94.304C24.255 94.5879 24.2644 94.8655 24.3177 95.1209C24.371 95.3764 24.4087 95.6193 24.4494 95.8464C24.4683 95.9568 24.4871 96.0672 24.509 96.1618L24.5875 96.4457C24.6345 96.6255 24.6784 96.7832 24.7129 96.9125C24.782 97.1712 24.8196 97.3194 24.8196 97.3194L24.76 97.3415C24.76 97.3415 24.7067 97.1995 24.6063 96.9504C24.5592 96.8242 24.4996 96.6696 24.4306 96.493L24.324 96.2123C24.2926 96.1145 24.2644 96.0073 24.233 95.8969C24.1671 95.6729 24.0981 95.4332 24.026 95.1746C23.9538 94.9159 23.9193 94.6384 23.8597 94.3545C23.798 94.0608 23.753 93.7638 23.7248 93.465C23.6966 93.1496 23.6684 92.8342 23.637 92.5377C23.6056 92.2412 23.637 91.9068 23.637 91.5914C23.6288 91.0051 23.6877 90.4199 23.8127 89.8471C23.8817 89.5822 23.9507 89.333 24.0166 89.1059C24.0716 88.9009 24.145 88.7013 24.2361 88.5098C24.3114 88.3373 24.3804 88.1891 24.4432 88.065C24.5592 87.8222 24.6377 87.6865 24.6377 87.6865L24.7004 87.7275Z" fill="#2B1D7F"/>
<path d="M26.1884 79.2491C26.1436 79.5793 26.068 79.9046 25.9626 80.2206C25.9187 80.3594 25.8653 80.5108 25.8026 80.6653C25.7399 80.8199 25.6928 80.9807 25.6238 81.1542C25.4826 81.4696 25.3101 81.8134 25.1313 82.1636C24.9525 82.5137 24.8396 82.8764 24.7047 83.2139C24.6388 83.3811 24.5667 83.5293 24.5133 83.6996C24.46 83.87 24.4067 84.0151 24.3596 84.1444L24.0459 85.0623L23.9863 85.0465C23.9863 85.0465 24.0491 84.6617 24.1557 84.0845C24.184 83.9394 24.2122 83.769 24.2436 83.6145C24.2749 83.4599 24.3282 83.2801 24.3722 83.1003C24.4663 82.7471 24.5698 82.3654 24.6859 81.9869C24.8019 81.6084 24.918 81.2268 25.0529 80.8798C25.1166 80.7142 25.1931 80.5539 25.2819 80.4004C25.3666 80.2553 25.4513 80.1196 25.536 79.9998C25.7195 79.7203 25.9296 79.4594 26.1633 79.2207L26.1884 79.2491Z" fill="#2B1D7F"/>
<path d="M29.046 66.9949C28.9938 67.3032 28.9107 67.6054 28.7982 67.8969C28.7511 68.0263 28.6946 68.1651 28.6288 68.307C28.5629 68.4489 28.5158 68.6035 28.4437 68.7517C28.3025 69.0514 28.1112 69.3542 27.9449 69.6696C27.7787 69.985 27.6657 70.3383 27.5308 70.6537C27.465 70.8083 27.3897 70.9691 27.3395 71.1016L27.1858 71.5116C27.0007 72.0226 26.8721 72.3633 26.8721 72.3633H26.8125C26.8125 72.3633 26.8721 72.0037 26.9788 71.4612C27.0039 71.3255 27.0321 71.1805 27.0635 71.0227C27.0948 70.865 27.1481 70.7073 27.1921 70.5465C27.2893 70.2121 27.3928 69.8589 27.5058 69.5056C27.6187 69.1523 27.7473 68.8022 27.8885 68.4805C27.9541 68.3267 28.0328 68.179 28.1237 68.0389C28.2116 67.9096 28.2994 67.7866 28.3841 67.6793C28.5694 67.4293 28.7796 67.1989 29.0115 66.9917L29.046 66.9949Z" fill="#2B1D7F"/>
<path d="M24.9683 77.9429C25.0218 78.0405 25.0559 78.1476 25.0687 78.2583C25.0807 78.3546 25.0678 78.4524 25.031 78.5422C24.9727 78.6326 24.9099 78.72 24.8428 78.804C24.6497 79.0396 24.4401 79.261 24.2154 79.4664L24.1621 79.4285C24.2205 79.151 24.2948 78.8772 24.3848 78.6084C24.3962 78.5025 24.413 78.3972 24.435 78.293C24.4758 78.2059 24.5359 78.1293 24.6107 78.0691C24.703 77.9941 24.8098 77.9393 24.9244 77.9082L24.9683 77.9429Z" fill="#2B1D7F"/>
<path d="M26.0495 91.7395C26.1438 92.0222 26.209 92.3139 26.244 92.61C26.2597 92.7394 26.2753 92.8813 26.2816 93.0295C26.2879 93.1778 26.3224 93.326 26.3318 93.4837C26.3506 93.7992 26.3318 94.1146 26.3318 94.4679C26.3318 94.8211 26.4071 95.1428 26.4416 95.4614C26.4636 95.6191 26.4698 95.7768 26.5012 95.9219L26.5828 96.3288C26.6831 96.8335 26.7459 97.1773 26.7459 97.1773L26.6863 97.1994C26.6863 97.1994 26.5545 96.884 26.3726 96.3888C26.3255 96.2657 26.2753 96.1333 26.2189 95.9913C26.1674 95.8428 26.1255 95.6911 26.0934 95.5371C26.0118 95.2217 25.9271 94.8747 25.8425 94.5309C25.7578 94.1871 25.717 93.8276 25.6856 93.4901C25.6699 93.3306 25.6699 93.17 25.6856 93.0106C25.7044 92.8634 25.7264 92.7246 25.7515 92.5943C25.8022 92.3003 25.8843 92.0127 25.9962 91.7363L26.0495 91.7395Z" fill="#2B1D7F"/>
<path d="M27.7248 100.578C27.8364 100.767 27.9208 100.971 27.9757 101.183C28.0352 101.389 28.071 101.6 28.0824 101.814C28.0824 102.044 28.051 102.297 28.0447 102.543C27.9412 103.555 27.775 104.539 27.775 104.539H27.7122C27.7122 104.539 27.5962 103.543 27.5428 102.574C27.5146 102.328 27.4487 102.082 27.4299 101.852C27.4218 101.641 27.4365 101.429 27.4738 101.221C27.5068 101.003 27.5702 100.791 27.662 100.59L27.7248 100.578Z" fill="#2B1D7F"/>
<path d="M35.2134 106.646C35.3177 106.855 35.3936 107.076 35.4393 107.305C35.4895 107.528 35.5169 107.755 35.5208 107.983C35.5208 108.229 35.4675 108.494 35.4518 108.759C35.2919 109.835 35.0723 110.876 35.0723 110.876H35.0095C35.0095 110.876 34.9468 109.81 34.9499 108.772C34.928 108.51 34.8715 108.245 34.8652 107.996C34.8665 107.768 34.8907 107.541 34.9374 107.318C34.9789 107.088 35.0506 106.866 35.1507 106.655L35.2134 106.646Z" fill="#2B1D7F"/>
<path d="M36.6091 109.766C36.741 109.836 36.8581 109.931 36.9542 110.046C37.0451 110.147 37.1183 110.262 37.1706 110.387C37.2177 110.526 37.2239 110.702 37.2647 110.841C37.4498 111.418 37.5784 112.043 37.5784 112.043L37.522 112.071C37.522 112.071 37.1298 111.573 36.7879 111.024C36.7126 110.885 36.6091 110.762 36.5527 110.627C36.5047 110.5 36.4792 110.365 36.4774 110.229C36.472 110.08 36.4933 109.93 36.5401 109.788L36.6091 109.766Z" fill="#2B1D7F"/>
<path d="M38.0709 111.135C38.2481 111.263 38.4065 111.416 38.5414 111.589C38.6058 111.666 38.6655 111.747 38.7202 111.832C38.7798 111.923 38.8489 111.999 38.9085 112.097C39.0214 112.283 39.0998 112.507 39.2222 112.728C39.3445 112.948 39.4888 113.128 39.608 113.324C39.6639 113.418 39.7246 113.51 39.7899 113.598L39.9687 113.835C40.1946 114.125 40.3389 114.33 40.3389 114.33L40.2981 114.377C40.2981 114.377 40.1005 114.229 39.8088 113.989L39.5703 113.8C39.4842 113.726 39.4025 113.647 39.3257 113.563C39.1594 113.393 38.9869 113.207 38.8144 113.021C38.6418 112.835 38.4787 112.627 38.3438 112.422C38.2793 112.323 38.2266 112.217 38.187 112.106C38.1528 112.01 38.1245 111.912 38.1023 111.813C38.0461 111.601 38.0197 111.382 38.0239 111.163L38.0709 111.135Z" fill="#2B1D7F"/>
<path d="M32.8543 103.823C32.8929 103.845 32.9296 103.871 32.9641 103.899C33.0528 103.961 33.1267 104.041 33.1805 104.136C33.2161 104.202 33.2476 104.27 33.2746 104.341C33.3011 104.416 33.3169 104.494 33.3217 104.574C33.3154 104.742 33.2923 104.909 33.2527 105.072C33.2243 105.23 33.1865 105.386 33.1397 105.539C33.1006 105.672 33.0545 105.802 33.0017 105.93C32.917 106.154 32.8511 106.299 32.8511 106.299H32.7884C32.7884 106.299 32.7884 106.138 32.7884 105.902C32.7884 105.665 32.7884 105.353 32.757 105.057C32.757 104.911 32.6974 104.766 32.6755 104.637C32.6707 104.575 32.6707 104.513 32.6755 104.451C32.6792 104.396 32.6876 104.341 32.7006 104.287C32.7135 104.233 32.7219 104.178 32.7257 104.123C32.7257 104.069 32.7445 104.022 32.7539 103.984C32.7658 103.94 32.7805 103.897 32.7978 103.855L32.8543 103.823Z" fill="#2B1D7F"/>
<path d="M91.9209 70.8901C92.0873 70.9958 92.2365 71.1266 92.3632 71.2781C92.4868 71.4199 92.5922 71.5767 92.6769 71.7449C92.7647 71.931 92.818 72.1487 92.8996 72.3537C93.2635 73.1391 93.5772 73.9749 93.5772 73.9749L93.5238 74.0065C93.5238 74.0065 92.9655 73.3189 92.4542 72.5839C92.3381 72.3947 92.1907 72.2244 92.0934 72.0446C92.0101 71.8741 91.948 71.694 91.9083 71.5084C91.8613 71.3155 91.8433 71.1167 91.855 70.9185L91.9209 70.8901Z" fill="#2B1D7F"/>
<path d="M95.0837 81.189C95.2593 81.3427 95.4143 81.5187 95.5448 81.7126C95.6098 81.7997 95.6685 81.8914 95.7205 81.987C95.7809 82.0933 95.8283 82.2066 95.8616 82.3245C95.9369 82.5768 95.9714 82.8575 96.0341 83.1225C96.0969 83.3874 96.1094 83.665 96.1345 83.9173C96.1522 84.0386 96.1627 84.1607 96.1659 84.2832V84.5986C96.1659 85.0055 96.1659 85.2736 96.1659 85.2736H96.1032C96.1032 85.2736 96.0373 85.0118 95.9495 84.6239L95.8804 84.3085C95.8585 84.1981 95.8146 84.0877 95.7801 83.9678C95.7016 83.7344 95.6295 83.4821 95.5573 83.2329C95.4852 82.9837 95.3346 82.7692 95.2593 82.5421C95.2185 82.4286 95.2029 82.3182 95.1684 82.2078C95.1339 82.0974 95.1119 81.9901 95.0899 81.8924C95.0392 81.6637 95.0192 81.4293 95.0303 81.1953L95.0837 81.189Z" fill="#2B1D7F"/>
<path d="M94.021 86.4722C94.021 86.4722 94.0555 86.6173 94.0931 86.8696C94.1308 87.1219 94.1747 87.4784 94.2186 87.9073C94.2406 88.1187 94.2563 88.3489 94.2719 88.5949C94.2876 88.841 94.3064 89.0933 94.3127 89.3582C94.319 89.6232 94.3127 89.9008 94.3127 90.1752C94.3127 90.4496 94.3284 90.7366 94.3378 91.0205C94.3472 91.3044 94.3943 91.582 94.4194 91.8564C94.4449 92.1276 94.4858 92.3972 94.5417 92.6638C94.595 92.9225 94.6264 93.178 94.6923 93.4114C94.7582 93.6448 94.8178 93.8687 94.8742 94.0738C94.9025 94.1747 94.9307 94.2725 94.9558 94.3671C94.9809 94.4617 95.0279 94.5406 95.0593 94.6226C95.1252 94.7834 95.1785 94.9222 95.2256 95.0389L95.3699 95.4048L95.3134 95.4332C95.3134 95.4332 95.2475 95.307 95.1252 95.0862L94.9119 94.6857L94.7801 94.4365L94.664 94.1495L94.4068 93.4965C94.3127 93.2631 94.2657 93.0045 94.1872 92.7427C94.1062 92.4748 94.0423 92.2019 93.9959 91.9258C93.9426 91.645 93.8924 91.3612 93.839 91.0741C93.7857 90.7871 93.7638 90.4969 93.7261 90.2162C93.6881 89.939 93.665 89.66 93.6571 89.3803C93.6429 89.1198 93.6429 88.8586 93.6571 88.5981C93.6571 88.3521 93.6885 88.1155 93.7104 87.901C93.7539 87.4191 93.8346 86.9414 93.952 86.4722H94.021Z" fill="#2B1D7F"/>
<path d="M92.5688 93.0041C92.7154 93.2463 92.8313 93.5059 92.9139 93.7769C92.9515 93.8968 92.9891 94.0292 93.0205 94.1712C93.0565 94.3172 93.0806 94.466 93.0927 94.6159C93.1272 94.9313 93.0927 95.2657 93.0927 95.6C93.0927 95.9344 93.0613 96.2687 93.0142 96.5778C92.9923 96.7355 92.986 96.8932 92.9515 97.0257C92.917 97.1582 92.895 97.297 92.8668 97.42C92.8198 97.666 92.7445 97.8616 92.7068 98.0004L92.6378 98.218L92.5782 98.2022C92.5782 98.2022 92.5782 98.1202 92.597 97.9783C92.6159 97.8363 92.6472 97.6345 92.6472 97.3884C92.6472 97.2686 92.6472 97.1361 92.6472 96.9973C92.6472 96.8585 92.6472 96.7135 92.6472 96.5621C92.6472 96.2466 92.6127 95.9312 92.5876 95.6158C92.5625 95.3004 92.4841 94.985 92.4402 94.6695C92.4154 94.3948 92.407 94.1189 92.4151 93.8431C92.4182 93.6395 92.4329 93.4363 92.459 93.2344C92.481 93.0861 92.5029 93.001 92.5029 93.001L92.5688 93.0041Z" fill="#2B1D7F"/>
<path d="M91.4445 98.0415C91.4445 98.0415 91.4759 98.1424 91.5104 98.3159C91.5449 98.4894 91.5763 98.7417 91.6108 99.0319C91.6265 99.177 91.639 99.3473 91.6453 99.5019C91.6515 99.6564 91.6704 99.8394 91.6735 100.019C91.6766 100.199 91.6735 100.385 91.6735 100.571C91.6735 100.757 91.6735 100.95 91.6735 101.139C91.6735 101.328 91.7143 101.533 91.7488 101.704C91.7775 101.883 91.8162 102.061 91.8649 102.237C91.9097 102.402 91.9631 102.565 92.0248 102.725C92.0753 102.871 92.135 103.013 92.2036 103.151C92.2576 103.272 92.3216 103.388 92.395 103.498C92.4446 103.587 92.5001 103.672 92.5612 103.754L92.7181 103.968L92.6742 104.012L92.4765 103.826C92.3995 103.754 92.3282 103.676 92.2632 103.593C92.1717 103.494 92.0878 103.389 92.0123 103.277C91.918 103.144 91.8321 103.005 91.7551 102.861C91.6673 102.701 91.5888 102.535 91.5198 102.366C91.4539 102.186 91.3786 102.006 91.3253 101.808C91.272 101.609 91.2249 101.429 91.1779 101.221C91.1308 101.013 91.1089 100.82 91.0743 100.625C91.0395 100.432 91.0196 100.237 91.0147 100.041C91.0107 99.8601 91.018 99.6789 91.0367 99.4987C91.0555 99.3253 91.0775 99.1644 91.1057 99.0162C91.1603 98.6841 91.2518 98.3593 91.3786 98.0478L91.4445 98.0415Z" fill="#2B1D7F"/>
<path d="M88.0754 105.177C88.1147 105.307 88.1285 105.444 88.1162 105.58C88.1108 105.701 88.0798 105.819 88.0252 105.927C87.9483 106.037 87.8656 106.142 87.7774 106.243C87.5279 106.529 87.2629 106.802 86.9838 107.06L86.9336 107.022C86.9336 107.022 87.1124 106.482 87.3288 106.012C87.3759 105.883 87.3884 105.735 87.4418 105.621C87.498 105.515 87.5748 105.42 87.6676 105.344C87.77 105.252 87.8894 105.183 88.019 105.139L88.0754 105.177Z" fill="#2B1D7F"/>
<path d="M85.5595 105.18C85.5595 105.18 85.5595 105.284 85.5406 105.46C85.5218 105.637 85.481 105.889 85.4277 106.18C85.3995 106.325 85.365 106.495 85.3242 106.643C85.2834 106.791 85.2489 106.978 85.1956 107.151C85.1423 107.324 85.0733 107.498 85.0231 107.678C84.9729 107.858 84.9164 108.047 84.8631 108.23C84.8097 108.413 84.7815 108.618 84.7596 108.794C84.7376 108.971 84.7188 109.163 84.7031 109.343C84.6874 109.523 84.7031 109.7 84.7031 109.864C84.7035 110.02 84.714 110.176 84.7345 110.33C84.747 110.462 84.768 110.593 84.7972 110.722C84.8152 110.828 84.8393 110.933 84.8693 111.037L84.9446 111.296L84.8882 111.321L84.7658 111.075C84.7165 110.981 84.6755 110.883 84.6435 110.781C84.5917 110.654 84.5488 110.524 84.5149 110.39C84.471 110.233 84.4354 110.072 84.4082 109.911C84.3759 109.729 84.3539 109.546 84.3423 109.362C84.3423 109.173 84.3235 108.974 84.3423 108.769C84.3612 108.564 84.3643 108.375 84.38 108.164L84.4647 107.561C84.4867 107.366 84.5255 107.173 84.5808 106.984C84.628 106.808 84.6877 106.637 84.7596 106.47C84.8286 106.31 84.8976 106.162 84.9666 106.025C85.1169 105.722 85.2999 105.436 85.5124 105.173L85.5595 105.18Z" fill="#2B1D7F"/>
<path d="M80.4617 112.128C80.477 112.175 80.4896 112.222 80.4994 112.27C80.5213 112.355 80.5182 112.488 80.537 112.614C80.5541 112.753 80.5541 112.894 80.537 113.034C80.5057 113.182 80.4523 113.349 80.421 113.507C80.3896 113.664 80.3833 113.841 80.3833 114.002C80.3753 114.149 80.3753 114.296 80.3833 114.443C80.3833 114.576 80.4116 114.683 80.4147 114.759C80.4178 114.835 80.4147 114.882 80.4147 114.882L80.3551 114.904L80.2955 114.794C80.2502 114.697 80.2104 114.598 80.1763 114.497L80.0947 114.286C80.0665 114.207 80.0424 114.127 80.0226 114.046C79.9764 113.867 79.9439 113.684 79.9253 113.5C79.8989 113.314 79.8894 113.127 79.8971 112.939C79.9074 112.852 79.9295 112.767 79.963 112.687C79.9922 112.611 80.0279 112.538 80.0696 112.469C80.13 112.366 80.2074 112.274 80.2986 112.198C80.3353 112.166 80.3741 112.136 80.4147 112.109L80.4617 112.128Z" fill="#2B1D7F"/>
<path d="M82.6061 108.428C82.6408 108.491 82.6712 108.557 82.6971 108.624C82.7686 108.791 82.8191 108.967 82.8476 109.147C82.8633 109.261 82.879 109.387 82.8884 109.52C82.8945 109.657 82.8882 109.794 82.8696 109.93C82.8529 110.074 82.8214 110.217 82.7755 110.355C82.7316 110.497 82.6876 110.642 82.65 110.788C82.6124 110.933 82.5496 111.068 82.5026 111.207C82.4553 111.343 82.3998 111.476 82.3363 111.604C82.2736 111.731 82.2265 111.857 82.1606 111.964C82.0948 112.071 82.0352 112.179 81.9818 112.279C81.8913 112.433 81.7929 112.581 81.687 112.724C81.6117 112.825 81.5709 112.885 81.5709 112.885L81.5176 112.854C81.5176 112.854 81.5427 112.784 81.5897 112.667C81.6368 112.551 81.7183 112.39 81.7779 112.182C81.8125 112.081 81.8501 111.97 81.8877 111.866C81.9254 111.762 81.9536 111.623 81.9881 111.497C82.0603 111.242 82.1042 110.961 82.1606 110.687C82.2171 110.412 82.2046 110.128 82.2202 109.87C82.2202 109.74 82.2642 109.614 82.2799 109.501C82.2962 109.394 82.3182 109.289 82.3457 109.185C82.3708 109.082 82.3928 108.984 82.4116 108.892C82.4304 108.804 82.4524 108.725 82.4712 108.662C82.4903 108.593 82.5145 108.525 82.5433 108.46L82.6061 108.428Z" fill="#2B1D7F"/>
<path d="M92.0502 32.0151C91.8502 31.7123 91.7534 31.3524 91.7743 30.9894C91.7952 30.6265 91.9328 30.2803 92.1663 30.0027C94.7856 26.9053 102.979 17.3071 105.087 15.8972C107.597 14.2097 113.842 21.3918 113.268 23.2686C112.785 24.8456 98.4495 30.8386 94.0641 32.6365C93.7076 32.7812 93.3123 32.7974 92.9452 32.6824C92.5782 32.5675 92.262 32.3283 92.0502 32.0056V32.0151Z" fill="#1E4EAE"/>
<path d="M90.5508 36.904C90.0406 37.2455 89.441 37.4271 88.8281 37.426C88.2151 37.4249 87.6162 37.2411 87.1072 36.8978C86.5981 36.5544 86.2018 36.067 85.9682 35.4972C85.7346 34.9274 85.6744 34.3007 85.795 33.6964C85.9156 33.0921 86.2118 32.5374 86.6459 32.1023C87.0801 31.6672 87.6328 31.3714 88.2342 31.2522C88.8356 31.133 89.4586 31.1958 90.0245 31.4326C90.5904 31.6694 91.0738 32.0697 91.4135 32.5827C91.6394 32.9233 91.7964 33.3053 91.8753 33.7069C91.9543 34.1085 91.9537 34.5219 91.8736 34.9233C91.7934 35.3246 91.6353 35.7062 91.4084 36.0461C91.1814 36.386 90.89 36.6775 90.5508 36.904Z" fill="#1E4EAE"/>
<path d="M92.1654 30.0024C91.9291 30.2876 91.7936 30.6437 91.7804 31.0147C91.7671 31.3857 91.8769 31.7506 92.0923 32.0521C92.3078 32.3536 92.6167 32.5745 92.9706 32.6803C93.3246 32.786 93.7034 32.7705 94.0476 32.6362C98.4392 30.8383 112.769 24.858 113.252 23.2682C113.606 22.1107 111.37 18.9312 109.007 17.064C110.501 18.4329 108.264 21.1392 106.147 22.7226C104.029 24.306 92.1749 32.264 92.1654 30.0024Z" fill="#2F6FED"/>
<path d="M88.5771 33.5039C87.4196 32.8479 87.4164 31.5578 88.0344 31.3149C87.4014 31.4856 86.8386 31.8539 86.427 32.3667C86.0154 32.8795 85.7763 33.5104 85.744 34.1686C85.7117 34.8268 85.888 35.4783 86.2475 36.0293C86.6069 36.5804 87.131 37.0025 87.7442 37.2349C88.3575 37.4674 89.0283 37.4982 89.66 37.3229C90.2918 37.1476 90.8519 36.7752 91.2598 36.2594C91.6677 35.7436 91.9022 35.1109 91.9297 34.4525C91.9572 33.7941 91.7763 33.1439 91.4128 32.5955C91.8646 33.6743 90.1518 34.3966 88.5771 33.5039Z" fill="#2F6FED"/>
<path d="M2.83071 44.5938C9.17143 49.4554 15.7641 54.0185 22.6089 58.2829C15.1179 55.3432 7.74832 52.0282 0.5 48.3378L2.83071 44.5938Z" fill="#1E4EAE"/>
<path d="M18.9069 36.8882L24.7603 54.5232L14.9355 38.7775L18.9069 36.8882Z" fill="#1E4EAE"/>
<path d="M8.77734 62.0269L20.8764 63.0236L9.21651 66.4206L8.77734 62.0269Z" fill="#1E4EAE"/>
<path d="M115.169 45.54C108.828 50.4017 102.235 54.9647 95.3906 59.2292C102.882 56.2853 110.251 52.9702 117.499 49.2841L115.169 45.54Z" fill="#1E4EAE"/>
<path d="M99.0949 37.8345L93.2383 55.4695L103.063 39.7238L99.0949 37.8345Z" fill="#1E4EAE"/>
<path d="M109.222 62.9731L97.123 63.9699L108.783 67.3669L109.222 62.9731Z" fill="#1E4EAE"/>
</g>
<defs>
<clipPath id="clip0_695_24552">
<rect width="117" height="128" fill="white" transform="translate(0.5)"/>
</clipPath>
</defs>
</svg>
