<svg width="20" height="20" viewBox="0 0 20 20" fill="none" xmlns="http://www.w3.org/2000/svg">
<path d="M18.0493 6.99503H17.3307L17.4744 6.31208C17.5136 6.13824 17.383 5.98924 17.2001 5.98924C17.0171 5.98924 16.8342 6.13824 16.795 6.31208L16.6513 6.99503H15.9328C15.7499 6.99503 15.567 7.14404 15.5278 7.31788C15.4886 7.49172 15.6192 7.64073 15.8021 7.64073H16.5207L16.377 8.32368C16.3378 8.49752 16.4684 8.64652 16.6513 8.64652C16.8342 8.64652 17.0171 8.49752 17.0563 8.32368L17.2001 7.64073H17.9186C18.1015 7.64073 18.2844 7.49172 18.3236 7.31788C18.3628 7.18129 18.2714 7.03228 18.1146 6.99503C18.1015 7.00745 18.0754 6.99503 18.0493 6.99503ZM11.138 4.26324L10.6677 4.39983C10.6154 4.21357 10.537 4.03974 10.4456 3.86589C10.1059 3.25745 9.62248 2.9346 9.03456 2.9346C8.99537 2.9346 8.95617 2.9346 8.91698 2.94702C8.90391 2.92218 8.87778 2.90977 8.86472 2.88493C8.60342 2.62417 8.2768 2.5 7.88486 2.5C7.11403 2.52483 6.35628 3.04636 5.74223 3.97765C5.31109 4.63576 4.97141 5.4553 4.87996 6.10099L3.3775 6.54801C2.9333 6.6846 2.92024 6.69702 2.86798 7.09437C2.82878 7.39238 1.66602 15.923 1.66602 15.923L11.2948 17.5V4.25082C11.2164 4.25082 11.1772 4.25083 11.138 4.26324ZM8.91698 4.92136L7.29694 5.40563C7.45372 4.83444 7.75421 4.26324 8.12002 3.89073C8.25067 3.75414 8.44664 3.59271 8.66875 3.50579C8.87778 3.92798 8.91698 4.51159 8.91698 4.92136ZM7.87179 2.99669C8.02857 2.98427 8.19841 3.03394 8.32906 3.10844C8.10696 3.2202 7.91099 3.3692 7.74115 3.54305C7.25775 4.03973 6.87887 4.8096 6.73516 5.55463L5.38948 5.95199C5.66384 4.78477 6.6829 3.03394 7.87179 2.99669ZM6.38241 9.65232C6.43467 10.4346 8.59036 10.596 8.70794 12.4214C8.79939 13.8618 7.91099 14.8427 6.61757 14.9172C5.06286 15.0166 4.21365 14.1474 4.21365 14.1474L4.54027 12.8187C4.54027 12.8187 5.40255 13.4396 6.08192 13.3899C6.52612 13.3651 6.69596 13.0174 6.66983 12.769C6.60451 11.7508 4.85383 11.8129 4.73624 10.149C4.64479 8.74586 5.61158 7.31788 7.75421 7.19371C8.57729 7.14404 8.99537 7.34272 8.99537 7.34272L8.51197 9.08113C8.51197 9.08113 7.96325 8.8452 7.32307 8.88245C6.38241 8.94454 6.36934 9.51573 6.38241 9.65232ZM9.4265 4.77235C9.4265 4.39983 9.37424 3.89073 9.19134 3.44371C9.76619 3.54304 10.0536 4.17632 10.1843 4.54884C10.1712 4.54884 9.4265 4.77235 9.4265 4.77235ZM11.5691 17.4752L15.567 16.5315C15.567 16.5315 13.8424 5.48013 13.8424 5.40563C13.8293 5.34354 13.7771 5.29387 13.6987 5.28146C13.6464 5.28146 12.5229 5.25662 12.5229 5.25662C12.5229 5.25662 11.8435 4.62334 11.5822 4.38742V17.4752H11.5691Z" fill="#4831D4"/>
</svg>
